<svg width="153" height="174" viewBox="0 0 153 174" fill="none" xmlns="http://www.w3.org/2000/svg">
<path d="M52.9057 96.3451L50.3534 97.4739L40.1531 90.2015L37.4379 91.7374C35.2566 93.0698 33.1387 93.1623 32.125 92.5702L31.9168 92.6719C30.342 93.3751 29.4098 92.7459 29.093 91.9872C28.7762 91.2286 28.9572 90.1368 30.5321 89.4151L30.7402 89.3226C30.9303 88.3973 31.754 86.8429 34.967 85.9269L37.9266 84.9554L39.7367 72.3814L42.2891 71.2434L44.2712 82.8922L51.5662 80.3385L52.6704 77.35L54.6978 76.582L54.8425 79.3577L55.5666 79.293L56.2273 80.8381L55.6843 81.384L57.603 83.4196L55.6662 84.4095L52.788 83.1882L45.9728 86.8892L52.9057 96.3451ZM52.7156 82.5128L55.6119 83.7434L56.517 83.2623L54.7611 81.4118L55.4218 80.7271L55.1141 79.9962L54.209 80.0794L54.0732 77.4888L53.0867 77.8589L51.9825 80.8566L43.7282 83.7341L41.7641 72.1594L40.2345 72.8348L38.4697 85.4551L35.1299 86.5468C32.0164 87.4258 31.4009 88.8507 31.3104 89.6186V89.8129L31.1294 89.8777C31.0144 89.9112 30.9024 89.9545 30.7945 90.0073C29.8261 90.4329 29.3917 91.1083 29.6722 91.7559C29.9528 92.4036 30.7221 92.5517 31.6906 92.1168C31.7995 92.0718 31.9054 92.0192 32.0074 91.9595L32.1793 91.8577L32.3422 91.978C33.003 92.4776 34.9308 92.5702 37.1573 91.2193L40.1983 89.4799L50.4257 96.78L51.9553 96.1046L45.0224 86.7226L52.7156 82.5128Z" fill="#999999"/>
<path d="M140.5 174C140.549 174.001 140.597 173.988 140.64 173.964C140.683 173.94 140.719 173.904 140.744 173.861C141.07 173.355 141.371 172.846 141.649 172.335C141.69 172.267 141.704 172.185 141.687 172.108C141.67 172.03 141.624 171.962 141.558 171.918C141.491 171.877 141.411 171.865 141.334 171.884C141.258 171.903 141.192 171.952 141.151 172.02C140.843 172.529 140.536 173.028 140.246 173.537C140.224 173.57 140.209 173.607 140.201 173.646C140.193 173.684 140.193 173.724 140.201 173.763C140.208 173.802 140.224 173.839 140.245 173.872C140.267 173.904 140.295 173.932 140.328 173.954C140.38 173.983 140.439 173.999 140.5 174V174ZM142.31 170.928C142.361 170.928 142.411 170.914 142.455 170.888C142.5 170.862 142.537 170.825 142.563 170.78C142.853 170.253 143.142 169.725 143.468 169.198C143.505 169.129 143.514 169.048 143.494 168.972C143.474 168.896 143.425 168.831 143.36 168.791C143.291 168.754 143.211 168.746 143.137 168.769C143.062 168.791 143 168.842 142.961 168.911C142.681 169.439 142.391 169.957 142.102 170.475C142.061 170.544 142.049 170.626 142.068 170.704C142.087 170.782 142.134 170.849 142.201 170.891C142.248 170.917 142.301 170.93 142.355 170.928H142.31ZM143.993 167.764C144.048 167.763 144.101 167.747 144.147 167.718C144.193 167.689 144.231 167.647 144.256 167.597C144.527 167.061 144.79 166.515 145.043 165.978C145.06 165.943 145.07 165.905 145.072 165.866C145.074 165.826 145.069 165.787 145.057 165.75C145.044 165.713 145.024 165.679 144.999 165.65C144.973 165.621 144.942 165.597 144.907 165.58C144.873 165.563 144.835 165.553 144.797 165.551C144.759 165.548 144.721 165.554 144.684 165.567C144.648 165.579 144.615 165.6 144.586 165.626C144.558 165.652 144.535 165.684 144.518 165.719C144.265 166.256 144.002 166.792 143.731 167.329C143.714 167.364 143.704 167.402 143.702 167.442C143.699 167.481 143.705 167.52 143.717 167.557C143.73 167.594 143.75 167.628 143.775 167.657C143.801 167.686 143.832 167.71 143.866 167.727C143.891 167.745 143.919 167.758 143.948 167.765C143.978 167.771 144.009 167.771 144.038 167.764H143.993ZM145.523 164.507C145.579 164.506 145.635 164.489 145.683 164.458C145.731 164.427 145.769 164.383 145.794 164.331L146.5 162.675C146.53 162.6 146.53 162.516 146.499 162.442C146.469 162.367 146.411 162.308 146.337 162.277C146.265 162.249 146.185 162.251 146.115 162.282C146.044 162.313 145.987 162.371 145.957 162.444C145.731 162.99 145.496 163.536 145.26 164.091C145.244 164.126 145.235 164.164 145.233 164.203C145.231 164.242 145.238 164.28 145.251 164.317C145.265 164.353 145.285 164.386 145.312 164.414C145.338 164.442 145.37 164.464 145.405 164.479C145.455 164.505 145.512 164.515 145.568 164.507H145.523ZM146.889 161.185C146.947 161.185 147.004 161.167 147.052 161.134C147.1 161.101 147.138 161.055 147.161 161C147.378 160.427 147.586 159.862 147.795 159.298C147.807 159.261 147.813 159.222 147.811 159.182C147.808 159.143 147.799 159.105 147.782 159.069C147.765 159.034 147.741 159.003 147.712 158.977C147.684 158.951 147.65 158.931 147.613 158.919C147.541 158.894 147.463 158.899 147.394 158.931C147.325 158.964 147.271 159.022 147.242 159.094C147.043 159.659 146.835 160.214 146.618 160.778C146.591 160.852 146.593 160.934 146.623 161.006C146.653 161.079 146.71 161.136 146.781 161.167L146.889 161.185ZM148.102 157.799C148.163 157.798 148.221 157.778 148.27 157.742C148.319 157.705 148.355 157.654 148.374 157.595C148.573 157.022 148.754 156.448 148.926 155.875C148.949 155.798 148.942 155.716 148.906 155.645C148.871 155.574 148.81 155.521 148.736 155.495C148.661 155.472 148.581 155.479 148.512 155.515C148.442 155.551 148.39 155.614 148.365 155.689C148.193 156.263 148.012 156.828 147.822 157.401C147.799 157.477 147.806 157.559 147.841 157.63C147.877 157.701 147.938 157.755 148.012 157.781L148.102 157.799ZM149.152 154.357C149.216 154.356 149.278 154.333 149.328 154.293C149.379 154.253 149.415 154.198 149.433 154.135C149.596 153.552 149.759 152.969 149.903 152.396C149.923 152.318 149.912 152.236 149.873 152.167C149.834 152.098 149.77 152.047 149.695 152.026C149.658 152.016 149.62 152.014 149.582 152.019C149.545 152.024 149.508 152.037 149.476 152.057C149.443 152.077 149.414 152.103 149.391 152.134C149.368 152.165 149.352 152.201 149.342 152.238C149.188 152.812 149.034 153.395 148.872 153.969C148.861 154.006 148.857 154.046 148.861 154.085C148.865 154.124 148.877 154.162 148.895 154.196C148.914 154.231 148.939 154.261 148.969 154.285C148.999 154.31 149.034 154.328 149.071 154.339L149.152 154.357ZM150.057 150.869C150.122 150.867 150.185 150.843 150.235 150.801C150.286 150.76 150.322 150.702 150.338 150.638C150.474 150.046 150.609 149.453 150.727 148.87C150.736 148.833 150.738 148.794 150.732 148.755C150.726 148.717 150.712 148.68 150.692 148.647C150.672 148.614 150.645 148.586 150.614 148.564C150.582 148.542 150.547 148.526 150.51 148.519C150.472 148.509 150.433 148.507 150.395 148.513C150.357 148.519 150.32 148.533 150.288 148.554C150.255 148.575 150.226 148.602 150.204 148.634C150.181 148.666 150.165 148.702 150.157 148.741C150.039 149.324 149.903 149.907 149.768 150.499C149.751 150.576 149.765 150.657 149.805 150.724C149.846 150.791 149.91 150.84 149.985 150.86L150.057 150.869ZM150.799 147.335C150.868 147.336 150.934 147.312 150.987 147.268C151.04 147.224 151.076 147.163 151.089 147.094C151.198 146.502 151.306 145.91 151.406 145.318C151.419 145.24 151.402 145.161 151.357 145.097C151.313 145.032 151.246 144.989 151.17 144.975C151.132 144.967 151.093 144.967 151.055 144.975C151.017 144.983 150.981 144.998 150.949 145.021C150.916 145.043 150.889 145.072 150.868 145.106C150.847 145.139 150.833 145.177 150.827 145.216C150.727 145.799 150.627 146.391 150.51 146.983C150.502 147.022 150.502 147.062 150.509 147.101C150.517 147.14 150.532 147.177 150.554 147.21C150.576 147.243 150.605 147.271 150.637 147.292C150.67 147.313 150.707 147.328 150.745 147.335H150.799ZM151.397 143.782C151.467 143.785 151.535 143.761 151.589 143.714C151.643 143.668 151.677 143.603 151.686 143.532C151.777 142.93 151.858 142.329 151.931 141.737C151.936 141.698 151.933 141.658 151.923 141.62C151.913 141.583 151.896 141.547 151.872 141.516C151.849 141.485 151.819 141.459 151.786 141.44C151.752 141.421 151.715 141.408 151.677 141.404C151.639 141.397 151.6 141.399 151.562 141.409C151.525 141.418 151.489 141.436 151.459 141.46C151.428 141.485 151.403 141.515 151.384 141.55C151.366 141.585 151.355 141.623 151.351 141.663C151.279 142.243 151.198 142.835 151.107 143.439C151.097 143.518 151.116 143.597 151.162 143.661C151.207 143.725 151.275 143.768 151.351 143.782H151.397ZM151.84 140.201C151.913 140.204 151.984 140.177 152.038 140.127C152.092 140.077 152.125 140.007 152.13 139.933C152.193 139.331 152.257 138.73 152.302 138.138C152.307 138.058 152.281 137.98 152.231 137.919C152.18 137.859 152.108 137.821 152.03 137.814C151.992 137.809 151.954 137.812 151.917 137.823C151.881 137.834 151.847 137.852 151.818 137.878C151.789 137.903 151.765 137.934 151.749 137.97C151.732 138.005 151.724 138.043 151.723 138.082C151.668 138.674 151.614 139.276 151.551 139.877C151.547 139.916 151.551 139.955 151.562 139.993C151.573 140.03 151.591 140.065 151.616 140.095C151.64 140.125 151.67 140.15 151.704 140.168C151.738 140.186 151.775 140.197 151.813 140.201H151.84ZM152.139 136.611C152.213 136.611 152.284 136.583 152.338 136.531C152.391 136.479 152.424 136.409 152.429 136.333C152.429 135.714 152.501 135.112 152.519 134.483C152.521 134.443 152.516 134.404 152.503 134.366C152.49 134.329 152.47 134.294 152.444 134.265C152.418 134.236 152.386 134.212 152.351 134.195C152.315 134.179 152.277 134.17 152.238 134.168C152.162 134.172 152.09 134.203 152.034 134.255C151.978 134.307 151.941 134.378 151.931 134.455C151.931 135.047 151.931 135.649 151.849 136.25C151.844 136.33 151.87 136.408 151.921 136.469C151.971 136.529 152.043 136.567 152.121 136.574L152.139 136.611ZM152.275 133.003C152.351 133.003 152.425 132.971 152.479 132.916C152.534 132.86 152.564 132.785 152.564 132.707C152.564 132.281 152.564 131.865 152.564 131.448V130.902C152.564 130.824 152.534 130.748 152.479 130.693C152.425 130.637 152.351 130.606 152.275 130.606V130.606C152.198 130.606 152.124 130.637 152.07 130.693C152.016 130.748 151.985 130.824 151.985 130.902V131.448C151.985 131.865 151.985 132.281 151.985 132.697C151.984 132.737 151.99 132.776 152.004 132.813C152.018 132.85 152.04 132.884 152.067 132.913C152.094 132.941 152.126 132.964 152.162 132.979C152.197 132.995 152.236 133.003 152.275 133.003V133.003ZM152.275 129.394C152.313 129.394 152.352 129.386 152.388 129.371C152.423 129.355 152.456 129.333 152.483 129.304C152.51 129.276 152.531 129.242 152.545 129.205C152.559 129.168 152.566 129.129 152.564 129.089C152.564 128.469 152.51 127.868 152.483 127.238C152.476 127.159 152.439 127.086 152.38 127.034C152.321 126.982 152.244 126.956 152.166 126.961C152.128 126.963 152.091 126.973 152.057 126.99C152.022 127.007 151.992 127.031 151.966 127.06C151.941 127.09 151.922 127.124 151.909 127.161C151.897 127.197 151.892 127.236 151.895 127.275C151.895 127.858 151.958 128.46 151.976 129.07C151.972 129.114 151.977 129.158 151.991 129.199C152.006 129.24 152.029 129.278 152.059 129.309C152.09 129.34 152.126 129.364 152.167 129.378C152.207 129.393 152.25 129.399 152.293 129.394H152.275ZM152.066 125.795C152.105 125.792 152.142 125.78 152.176 125.762C152.209 125.744 152.239 125.719 152.264 125.689C152.288 125.659 152.306 125.624 152.318 125.587C152.329 125.549 152.333 125.51 152.329 125.471C152.275 124.854 152.211 124.238 152.139 123.621C152.136 123.581 152.125 123.543 152.106 123.508C152.088 123.473 152.062 123.442 152.032 123.418C152.001 123.394 151.966 123.376 151.928 123.366C151.89 123.357 151.851 123.355 151.813 123.362C151.737 123.373 151.668 123.414 151.621 123.476C151.574 123.538 151.552 123.617 151.56 123.695C151.632 124.259 151.695 124.861 151.75 125.48C151.746 125.526 151.753 125.572 151.769 125.614C151.786 125.657 151.812 125.695 151.845 125.725C151.879 125.755 151.918 125.778 151.961 125.79C152.005 125.802 152.05 125.804 152.094 125.795H152.066ZM151.632 122.214C151.708 122.201 151.775 122.157 151.819 122.093C151.863 122.029 151.881 121.949 151.867 121.872L151.813 121.511C151.732 121.039 151.641 120.586 151.551 120.086C151.543 120.048 151.528 120.011 151.507 119.979C151.485 119.947 151.458 119.919 151.426 119.897C151.394 119.876 151.358 119.861 151.32 119.854C151.283 119.846 151.244 119.847 151.207 119.855C151.169 119.861 151.132 119.876 151.1 119.898C151.067 119.919 151.04 119.947 151.018 119.98C150.997 120.013 150.983 120.05 150.976 120.089C150.97 120.128 150.971 120.168 150.98 120.207C151.071 120.678 151.152 121.132 151.234 121.613L151.297 121.965C151.301 122.006 151.314 122.046 151.334 122.082C151.355 122.119 151.383 122.15 151.417 122.173C151.45 122.197 151.489 122.213 151.529 122.22C151.569 122.227 151.611 122.225 151.65 122.214H151.632ZM150.935 118.68H150.998C151.036 118.672 151.071 118.657 151.103 118.635C151.134 118.613 151.161 118.585 151.181 118.552C151.201 118.519 151.215 118.482 151.221 118.444C151.227 118.405 151.225 118.366 151.216 118.328C151.08 117.736 150.944 117.153 150.79 116.561C150.78 116.523 150.762 116.488 150.738 116.457C150.714 116.426 150.685 116.401 150.651 116.382C150.617 116.363 150.58 116.351 150.542 116.347C150.504 116.343 150.465 116.346 150.428 116.358C150.391 116.367 150.357 116.384 150.326 116.408C150.296 116.431 150.27 116.46 150.251 116.494C150.232 116.527 150.219 116.564 150.214 116.603C150.208 116.642 150.211 116.681 150.22 116.718C150.374 117.301 150.519 117.875 150.646 118.458C150.664 118.525 150.705 118.584 150.761 118.625C150.817 118.665 150.885 118.685 150.953 118.68H150.935ZM150.03 115.201H150.112C150.149 115.19 150.183 115.172 150.213 115.148C150.243 115.123 150.268 115.093 150.287 115.059C150.306 115.024 150.317 114.986 150.321 114.947C150.325 114.908 150.322 114.869 150.311 114.831C150.139 114.248 149.958 113.674 149.768 113.101C149.755 113.063 149.736 113.029 149.711 113C149.685 112.97 149.655 112.946 149.62 112.929C149.585 112.912 149.548 112.901 149.509 112.899C149.471 112.897 149.433 112.903 149.397 112.916C149.36 112.928 149.326 112.948 149.298 112.974C149.269 113 149.245 113.031 149.228 113.067C149.211 113.102 149.202 113.14 149.199 113.18C149.197 113.219 149.203 113.258 149.216 113.295C149.406 113.859 149.578 114.433 149.749 115.007C149.771 115.067 149.811 115.118 149.863 115.153C149.915 115.188 149.977 115.205 150.039 115.201H150.03ZM148.899 111.778C148.931 111.786 148.966 111.786 148.998 111.778C149.07 111.751 149.129 111.695 149.161 111.624C149.193 111.553 149.197 111.472 149.17 111.398C148.962 110.834 148.745 110.27 148.51 109.714C148.496 109.678 148.475 109.644 148.448 109.616C148.421 109.588 148.389 109.565 148.354 109.549C148.318 109.534 148.28 109.526 148.242 109.526C148.203 109.525 148.165 109.533 148.129 109.548C148.094 109.563 148.062 109.585 148.036 109.613C148.009 109.641 147.988 109.673 147.974 109.709C147.959 109.746 147.952 109.784 147.952 109.823C147.953 109.862 147.961 109.901 147.976 109.936C148.202 110.492 148.419 111.047 148.618 111.611C148.645 111.665 148.687 111.71 148.738 111.739C148.79 111.769 148.849 111.782 148.908 111.778H148.899ZM147.568 108.502C147.61 108.511 147.653 108.511 147.695 108.502C147.765 108.468 147.819 108.408 147.846 108.333C147.873 108.259 147.871 108.177 147.84 108.104C147.586 107.559 147.333 107.013 147.061 106.467C147.025 106.399 146.964 106.347 146.892 106.323C146.82 106.299 146.741 106.304 146.672 106.337C146.602 106.373 146.548 106.436 146.522 106.512C146.497 106.588 146.502 106.672 146.536 106.744C146.808 107.272 147.061 107.808 147.306 108.354C147.331 108.402 147.37 108.441 147.416 108.467C147.463 108.493 147.515 108.506 147.568 108.502V108.502ZM145.975 105.282C146.02 105.295 146.067 105.295 146.111 105.282C146.145 105.264 146.176 105.239 146.2 105.208C146.225 105.178 146.243 105.142 146.254 105.104C146.265 105.066 146.268 105.027 146.264 104.987C146.26 104.948 146.248 104.91 146.229 104.875C145.939 104.348 145.64 103.821 145.324 103.312C145.305 103.277 145.28 103.247 145.249 103.223C145.219 103.199 145.184 103.182 145.146 103.172C145.109 103.163 145.07 103.161 145.032 103.168C144.994 103.174 144.958 103.189 144.925 103.21C144.893 103.23 144.864 103.256 144.841 103.288C144.819 103.319 144.802 103.355 144.793 103.392C144.784 103.43 144.782 103.469 144.787 103.508C144.793 103.547 144.806 103.584 144.826 103.617C145.134 104.126 145.423 104.644 145.731 105.171C145.761 105.197 145.795 105.216 145.833 105.227C145.87 105.238 145.91 105.241 145.948 105.236L145.975 105.282ZM144.165 102.201C144.218 102.218 144.275 102.218 144.328 102.201C144.361 102.18 144.389 102.152 144.41 102.119C144.432 102.087 144.447 102.05 144.455 102.011C144.462 101.972 144.462 101.932 144.455 101.893C144.447 101.854 144.431 101.818 144.41 101.785C144.075 101.285 143.74 100.786 143.387 100.295C143.34 100.233 143.272 100.192 143.196 100.18C143.12 100.168 143.043 100.186 142.979 100.231C142.919 100.278 142.878 100.348 142.866 100.426C142.854 100.503 142.872 100.583 142.916 100.647C143.26 101.128 143.595 101.619 143.921 102.118C143.978 102.152 144.045 102.165 144.111 102.155L144.165 102.201ZM104.342 100.157H104.713C104.751 100.154 104.788 100.144 104.822 100.127C104.857 100.11 104.887 100.086 104.912 100.057C104.938 100.028 104.957 99.9937 104.969 99.9569C104.982 99.92 104.987 99.881 104.984 99.8421C104.983 99.8027 104.974 99.764 104.958 99.7284C104.942 99.6928 104.918 99.6609 104.889 99.6349C104.86 99.6088 104.827 99.5892 104.79 99.5771C104.753 99.5649 104.715 99.5607 104.676 99.5645C104.33 99.597 103.982 99.597 103.636 99.5645C103.428 99.5378 103.223 99.4977 103.02 99.4442C102.945 99.4243 102.864 99.4354 102.797 99.4752C102.729 99.5149 102.679 99.5802 102.658 99.657C102.649 99.6953 102.647 99.7351 102.653 99.7742C102.659 99.8132 102.672 99.8506 102.692 99.8842C102.713 99.9178 102.739 99.947 102.771 99.9699C102.802 99.9929 102.838 100.009 102.875 100.018C103.104 100.083 103.337 100.129 103.572 100.157C103.796 100.152 104.02 100.137 104.242 100.11L104.342 100.157ZM106.423 99.7958H106.514C107.102 99.5847 107.65 99.2717 108.134 98.8706C108.188 98.8136 108.218 98.7372 108.218 98.6578C108.218 98.5783 108.188 98.5019 108.134 98.445C108.107 98.4164 108.075 98.3937 108.039 98.3782C108.003 98.3627 107.965 98.3547 107.926 98.3547C107.887 98.3547 107.848 98.3627 107.813 98.3782C107.777 98.3937 107.745 98.4164 107.718 98.445C107.285 98.7981 106.799 99.0762 106.278 99.2684C106.242 99.2809 106.208 99.3007 106.18 99.3266C106.151 99.3525 106.127 99.384 106.11 99.4193C106.093 99.4546 106.084 99.493 106.081 99.5322C106.079 99.5714 106.085 99.6107 106.097 99.6478C106.126 99.6802 106.161 99.7062 106.2 99.7237C106.239 99.7413 106.281 99.7501 106.324 99.7495L106.423 99.7958ZM142.129 99.2962C142.195 99.297 142.259 99.2741 142.31 99.2314C142.364 99.1744 142.394 99.0981 142.394 99.0186C142.394 98.9391 142.364 98.8628 142.31 98.8058C141.939 98.3339 141.549 97.8806 141.169 97.4179C141.114 97.3625 141.039 97.3316 140.961 97.3316C140.883 97.3316 140.809 97.3625 140.753 97.4179C140.699 97.4749 140.668 97.5513 140.668 97.6307C140.668 97.7102 140.699 97.7866 140.753 97.8435C141.133 98.2877 141.513 98.7688 141.875 99.2129C141.923 99.2387 141.976 99.2515 142.029 99.2499L142.129 99.2962ZM101.346 99.2499C101.393 99.2485 101.44 99.2361 101.482 99.2137C101.525 99.1913 101.562 99.1594 101.59 99.1204C101.631 99.0526 101.645 98.9712 101.628 98.8934C101.611 98.8156 101.565 98.7476 101.5 98.704C101.033 98.387 100.61 98.0073 100.242 97.5752C100.187 97.5204 100.114 97.4897 100.038 97.4897C99.9617 97.4897 99.8885 97.5204 99.8343 97.5752C99.7801 97.6322 99.7498 97.7086 99.7498 97.788C99.7498 97.8675 99.7801 97.9438 99.8343 98.0008C100.236 98.4794 100.702 98.897 101.219 99.2407C101.228 99.2443 101.237 99.2474 101.246 99.2499H101.346ZM109.066 97.5382C109.118 97.5368 109.169 97.5216 109.213 97.494C109.258 97.4664 109.294 97.4274 109.32 97.3809C109.618 96.8048 109.812 96.1777 109.89 95.5305C109.895 95.4915 109.892 95.4519 109.882 95.414C109.872 95.3761 109.855 95.3407 109.831 95.3097C109.808 95.2787 109.778 95.2528 109.745 95.2335C109.711 95.2142 109.674 95.2019 109.636 95.1974C109.561 95.1868 109.484 95.2071 109.423 95.2538C109.362 95.3006 109.322 95.3701 109.31 95.4472C109.235 96.0089 109.067 96.5534 108.813 97.0571C108.794 97.0916 108.782 97.1296 108.777 97.169C108.773 97.2083 108.776 97.2481 108.787 97.286C108.798 97.324 108.817 97.3593 108.841 97.3899C108.866 97.4205 108.896 97.4458 108.93 97.4642C108.942 97.4742 108.954 97.4835 108.967 97.492L109.066 97.5382ZM139.794 96.613C139.871 96.6138 139.946 96.584 140.002 96.5297C140.056 96.4727 140.086 96.3964 140.086 96.3169C140.086 96.2374 140.056 96.1611 140.002 96.1041C139.585 95.6692 139.16 95.2436 138.735 94.8273C138.679 94.7719 138.604 94.7409 138.526 94.7409C138.449 94.7409 138.374 94.7719 138.318 94.8273C138.265 94.8827 138.235 94.9575 138.235 95.0355C138.235 95.1134 138.265 95.1882 138.318 95.2436C138.735 95.6507 139.151 96.0763 139.558 96.5019C139.6 96.5262 139.646 96.539 139.694 96.539L139.794 96.613ZM99.0649 96.613C99.1098 96.6217 99.1559 96.6217 99.2007 96.613C99.2681 96.5739 99.3185 96.5103 99.342 96.4348C99.3655 96.3593 99.3603 96.2776 99.3275 96.2059C99.0726 95.6909 98.8869 95.1432 98.7754 94.5775C98.7669 94.539 98.7509 94.5026 98.7285 94.4704C98.706 94.4383 98.6775 94.4111 98.6446 94.3904C98.6117 94.3697 98.5751 94.356 98.5369 94.35C98.4988 94.344 98.4598 94.3458 98.4224 94.3554C98.3848 94.3631 98.3491 94.3784 98.3174 94.4003C98.2857 94.4221 98.2585 94.4502 98.2375 94.4829C98.2164 94.5156 98.2019 94.5523 98.1948 94.5907C98.1877 94.6292 98.1882 94.6687 98.1961 94.707C98.3274 95.319 98.531 95.9124 98.8025 96.4742C98.8461 96.5021 98.896 96.518 98.9473 96.5205L99.0649 96.613ZM137.25 94.1611C137.292 94.1609 137.332 94.1517 137.37 94.1342C137.407 94.1166 137.441 94.0911 137.468 94.0593C137.522 94.0023 137.552 93.926 137.552 93.8465C137.552 93.767 137.522 93.6907 137.468 93.6337L136.924 93.1711L136.083 92.4957C136.02 92.4471 135.941 92.4256 135.863 92.436C135.786 92.4464 135.715 92.4878 135.666 92.5512C135.622 92.6145 135.602 92.693 135.612 92.7704C135.623 92.8479 135.661 92.9184 135.721 92.9675L136.553 93.6337L137.087 94.0963C137.103 94.0885 137.118 94.0793 137.133 94.0686L137.25 94.1611ZM109.627 94.0778C109.705 94.0685 109.776 94.0284 109.825 93.9661C109.874 93.9038 109.897 93.8243 109.89 93.7447C109.821 93.117 109.693 92.4974 109.51 91.8942C109.499 91.8564 109.482 91.8211 109.458 91.7903C109.434 91.7595 109.404 91.7338 109.37 91.7149C109.337 91.6959 109.3 91.684 109.261 91.6799C109.223 91.6757 109.184 91.6794 109.148 91.6907C109.111 91.7012 109.076 91.7193 109.046 91.7439C109.017 91.7685 108.992 91.7991 108.974 91.8337C108.956 91.8684 108.946 91.9064 108.943 91.9455C108.94 91.9845 108.945 92.0238 108.958 92.0608C109.122 92.6203 109.24 93.1929 109.31 93.7725C109.323 93.8226 109.347 93.8687 109.382 93.906C109.417 93.9433 109.461 93.9707 109.51 93.9853L109.627 94.0778ZM98.359 93.1526C98.4328 93.1527 98.5038 93.1241 98.5577 93.0725C98.6115 93.0209 98.644 92.9503 98.6486 92.875C98.6904 92.3061 98.8186 91.7473 99.0288 91.2188C99.0437 91.183 99.0515 91.1445 99.0519 91.1056C99.0522 91.0666 99.045 91.028 99.0307 90.9919C99.0164 90.9558 98.9953 90.9229 98.9685 90.8952C98.9418 90.8675 98.91 90.8454 98.8749 90.8302C98.8399 90.815 98.8022 90.807 98.7641 90.8067C98.726 90.8063 98.6882 90.8136 98.6529 90.8283C98.6176 90.8429 98.5855 90.8645 98.5583 90.8918C98.5312 90.9191 98.5096 90.9517 98.4948 90.9875C98.2549 91.5764 98.1112 92.2015 98.0694 92.838C98.0657 92.8776 98.0698 92.9176 98.0815 92.9556C98.0933 92.9935 98.1124 93.0287 98.1378 93.0589C98.1631 93.0892 98.1942 93.1139 98.2291 93.1316C98.264 93.1492 98.302 93.1595 98.3409 93.1618L98.359 93.1526ZM134.327 91.848C134.375 91.8488 134.422 91.8374 134.465 91.8148C134.508 91.7922 134.544 91.7591 134.571 91.7185C134.614 91.6529 134.63 91.573 134.617 91.4954C134.603 91.4178 134.561 91.3485 134.499 91.3021C134.01 90.9598 133.503 90.6267 133.005 90.3121C132.938 90.271 132.858 90.2586 132.781 90.2777C132.705 90.2967 132.639 90.3456 132.598 90.4139C132.579 90.4473 132.565 90.4843 132.56 90.5229C132.554 90.5614 132.556 90.6007 132.565 90.6386C132.575 90.6764 132.591 90.712 132.614 90.7433C132.636 90.7746 132.665 90.801 132.698 90.821C133.193 91.1356 133.681 91.4594 134.164 91.7925C134.212 91.8274 134.268 91.8468 134.327 91.848ZM108.532 90.5064C108.571 90.5158 108.611 90.5158 108.65 90.5064C108.721 90.4739 108.777 90.414 108.806 90.3396C108.835 90.2652 108.834 90.1822 108.804 90.1085C108.577 89.5812 108.315 89.026 108.016 88.4709C107.998 88.4359 107.973 88.4049 107.944 88.3798C107.914 88.3547 107.879 88.336 107.842 88.3248C107.805 88.3135 107.766 88.31 107.727 88.3145C107.689 88.3189 107.652 88.3312 107.618 88.3506C107.551 88.3896 107.501 88.4539 107.479 88.5298C107.457 88.6058 107.464 88.6875 107.5 88.7577C107.79 89.2943 108.052 89.831 108.27 90.3491C108.291 90.4028 108.327 90.449 108.374 90.4819C108.42 90.5148 108.475 90.5329 108.532 90.5341V90.5064ZM131.277 89.9975C131.331 89.9988 131.384 89.9847 131.43 89.9569C131.476 89.9292 131.514 89.8887 131.539 89.8402C131.575 89.77 131.583 89.6883 131.561 89.6124C131.539 89.5364 131.489 89.4721 131.422 89.4331C130.906 89.1463 130.372 88.8687 129.838 88.6004C129.803 88.5831 129.766 88.573 129.728 88.5707C129.689 88.5683 129.651 88.5738 129.615 88.5867C129.579 88.5996 129.545 88.6197 129.517 88.6459C129.488 88.6721 129.465 88.7038 129.449 88.7392C129.432 88.7744 129.422 88.8127 129.419 88.8518C129.417 88.8909 129.422 88.9301 129.435 88.9671C129.448 89.0041 129.467 89.0382 129.493 89.0674C129.519 89.0965 129.55 89.1202 129.584 89.1371C130.109 89.3961 130.634 89.6737 131.141 89.9605C131.182 89.9857 131.229 89.9985 131.277 89.9975V89.9975ZM99.5265 89.7662C99.5699 89.7656 99.6126 89.7553 99.6517 89.7362C99.6907 89.717 99.7252 89.6894 99.7528 89.6552C100.119 89.2176 100.532 88.8234 100.984 88.4801C101.016 88.458 101.043 88.4294 101.064 88.396C101.085 88.3626 101.099 88.3252 101.105 88.2861C101.11 88.247 101.108 88.2071 101.099 88.1688C101.089 88.1305 101.071 88.0948 101.047 88.0638C101.025 88.0309 100.997 88.003 100.965 87.9817C100.932 87.9605 100.896 87.9464 100.857 87.9403C100.819 87.9342 100.78 87.9363 100.743 87.9464C100.705 87.9565 100.67 87.9744 100.64 87.999C100.147 88.3711 99.6978 88.7995 99.3003 89.2758C99.2487 89.3324 99.2201 89.4068 99.2201 89.484C99.2201 89.5613 99.2487 89.6357 99.3003 89.6922C99.3402 89.7286 99.3888 89.7538 99.4412 89.7651C99.4936 89.7765 99.548 89.7737 99.599 89.7569L99.5265 89.7662ZM128.109 88.4246C128.166 88.4218 128.222 88.4032 128.27 88.3706C128.318 88.338 128.356 88.2927 128.381 88.2396C128.395 88.2037 128.403 88.1652 128.404 88.1263C128.404 88.0873 128.397 88.0487 128.382 88.0126C128.368 87.9765 128.347 87.9437 128.32 87.9159C128.294 87.8882 128.262 87.8661 128.227 87.851C127.675 87.6104 127.122 87.3884 126.57 87.1756C126.497 87.1483 126.416 87.1515 126.345 87.1843C126.274 87.2172 126.219 87.2771 126.19 87.3514C126.164 87.4274 126.168 87.511 126.202 87.5838C126.236 87.6566 126.297 87.7127 126.371 87.7399C126.914 87.9435 127.457 88.1655 127.991 88.3968C128.043 88.4195 128.099 88.4259 128.154 88.4154L128.109 88.4246ZM102.323 87.6104C102.364 87.6239 102.409 87.6239 102.45 87.6104C102.968 87.3549 103.5 87.1294 104.043 86.935C104.079 86.9225 104.113 86.9027 104.142 86.8768C104.171 86.8509 104.194 86.8194 104.211 86.7841C104.228 86.7488 104.238 86.7104 104.24 86.6712C104.242 86.632 104.237 86.5927 104.224 86.5556C104.212 86.5184 104.192 86.484 104.167 86.4545C104.142 86.4249 104.111 86.4009 104.076 86.3836C104.042 86.3664 104.004 86.3564 103.966 86.3542C103.928 86.3519 103.889 86.3575 103.853 86.3706C103.285 86.5726 102.729 86.8074 102.187 87.0738C102.118 87.1112 102.067 87.1748 102.043 87.2509C102.019 87.327 102.026 87.4096 102.061 87.4809C102.094 87.5305 102.141 87.5686 102.196 87.5901C102.251 87.6116 102.311 87.6154 102.369 87.6012L102.323 87.6104ZM106.849 87.3606C106.904 87.3641 106.958 87.3477 107.003 87.3143C107.035 87.2945 107.064 87.268 107.087 87.2364C107.109 87.2048 107.125 87.1689 107.134 87.1307C107.142 87.0926 107.143 87.0531 107.136 87.0147C107.129 86.9763 107.114 86.9397 107.093 86.9072C106.948 86.6667 106.794 86.4354 106.641 86.1855L107.446 86.019C107.522 86.0055 107.589 85.9618 107.633 85.8976C107.677 85.8334 107.694 85.7539 107.681 85.6766C107.675 85.6374 107.661 85.6 107.64 85.5665C107.619 85.533 107.591 85.5042 107.559 85.4817C107.527 85.4593 107.491 85.4437 107.453 85.4358C107.415 85.428 107.375 85.4281 107.337 85.4361C106.984 85.5009 106.631 85.5749 106.288 85.6581L106.106 85.3991C106.085 85.3666 106.057 85.3388 106.025 85.3175C105.992 85.2961 105.956 85.2815 105.918 85.2746C105.88 85.2677 105.841 85.2686 105.804 85.2773C105.766 85.286 105.731 85.3022 105.699 85.3251C105.667 85.3473 105.64 85.3758 105.619 85.4089C105.598 85.4419 105.584 85.4789 105.577 85.5177C105.571 85.5565 105.572 85.5962 105.58 85.6346C105.589 85.673 105.604 85.7094 105.627 85.7414L105.672 85.8062H105.6C105.524 85.8279 105.46 85.8783 105.419 85.9471C105.379 86.0159 105.366 86.0979 105.382 86.1763C105.406 86.2518 105.456 86.3156 105.523 86.3551C105.59 86.3945 105.669 86.4067 105.744 86.3891L106.025 86.3243C106.233 86.6204 106.423 86.9257 106.604 87.2496C106.633 87.2844 106.669 87.3117 106.71 87.3294C106.751 87.3471 106.795 87.3546 106.84 87.3514L106.849 87.3606ZM124.824 87.1663C124.886 87.169 124.947 87.1505 124.998 87.1136C125.049 87.0768 125.086 87.0237 125.104 86.9627C125.127 86.8867 125.12 86.8044 125.085 86.7335C125.049 86.6627 124.988 86.6088 124.914 86.5834C124.353 86.4076 123.774 86.2318 123.203 86.0837C123.167 86.0727 123.128 86.0695 123.09 86.0743C123.052 86.0791 123.015 86.0919 122.982 86.1119C122.949 86.1318 122.92 86.1585 122.897 86.1903C122.875 86.2221 122.859 86.2582 122.85 86.2966C122.841 86.3342 122.839 86.3734 122.844 86.412C122.849 86.4505 122.862 86.4876 122.881 86.5211C122.901 86.5546 122.926 86.5839 122.957 86.6073C122.987 86.6307 123.022 86.6477 123.059 86.6574C123.62 86.8055 124.181 86.9812 124.742 87.157L124.824 87.1663ZM121.42 86.2411C121.488 86.242 121.553 86.2182 121.604 86.174C121.656 86.1299 121.69 86.0683 121.701 86.0005C121.709 85.9622 121.709 85.9227 121.702 85.8842C121.695 85.8458 121.681 85.8091 121.66 85.7764C121.639 85.7437 121.611 85.7156 121.58 85.6938C121.548 85.6719 121.512 85.6566 121.475 85.6489C120.896 85.5194 120.307 85.4083 119.728 85.3158C119.652 85.3024 119.575 85.3202 119.512 85.3653C119.449 85.4104 119.406 85.4791 119.393 85.5564C119.385 85.5955 119.386 85.6358 119.394 85.6747C119.402 85.7137 119.418 85.7505 119.441 85.7827C119.464 85.8149 119.494 85.8418 119.527 85.8618C119.561 85.8818 119.599 85.8944 119.637 85.8987C120.208 86.0005 120.787 86.1115 121.357 86.2318L121.42 86.2411ZM109.138 85.7322C109.709 85.6489 110.297 85.5841 110.876 85.5379C110.954 85.5308 111.026 85.493 111.076 85.4325C111.127 85.372 111.153 85.2935 111.148 85.214C111.144 85.1751 111.133 85.1372 111.116 85.1026C111.098 85.068 111.074 85.0373 111.044 85.0124C111.015 84.9874 110.981 84.9687 110.944 84.9573C110.908 84.9458 110.869 84.9419 110.831 84.9457C110.243 84.9457 109.645 85.0567 109.021 85.14C108.983 85.1445 108.946 85.1568 108.913 85.1762C108.88 85.1956 108.851 85.2217 108.829 85.2528C108.806 85.284 108.789 85.3196 108.78 85.3575C108.771 85.3954 108.77 85.4347 108.776 85.4731C108.78 85.518 108.793 85.5616 108.815 85.6005C108.837 85.6394 108.868 85.6726 108.905 85.6975C108.941 85.7225 108.983 85.7386 109.027 85.7446C109.07 85.7506 109.115 85.7464 109.157 85.7322H109.138ZM117.936 85.6581C118.008 85.6585 118.078 85.6311 118.132 85.5815C118.185 85.5318 118.219 85.4634 118.226 85.3898C118.233 85.3127 118.211 85.2355 118.164 85.175C118.116 85.1144 118.047 85.0753 117.972 85.066C117.384 84.992 116.786 84.9365 116.162 84.8994C116.124 84.8969 116.086 84.9021 116.05 84.9147C116.014 84.9274 115.98 84.9471 115.952 84.9729C115.923 84.9987 115.9 85.03 115.883 85.065C115.866 85.1 115.857 85.1381 115.854 85.177C115.85 85.2162 115.855 85.2557 115.867 85.2932C115.878 85.3306 115.898 85.3651 115.923 85.3946C115.949 85.4242 115.98 85.448 116.015 85.4647C116.049 85.4814 116.087 85.4905 116.126 85.4916C116.705 85.5379 117.293 85.5841 117.863 85.6581H117.936ZM112.65 85.4361C113.239 85.4361 113.818 85.4361 114.406 85.4361C114.444 85.4373 114.481 85.4308 114.516 85.417C114.551 85.4031 114.583 85.3822 114.61 85.3554C114.637 85.3287 114.659 85.2966 114.673 85.2612C114.688 85.2258 114.696 85.1877 114.696 85.1493C114.697 85.1104 114.691 85.0716 114.677 85.0352C114.664 84.9988 114.643 84.9655 114.617 84.9372C114.591 84.9088 114.56 84.886 114.525 84.87C114.491 84.854 114.453 84.8451 114.415 84.8439C113.818 84.8439 113.229 84.8439 112.605 84.8439C112.566 84.8451 112.528 84.8542 112.493 84.8708C112.457 84.8874 112.426 84.9111 112.399 84.9404C112.373 84.9698 112.353 85.0042 112.34 85.0417C112.327 85.0791 112.322 85.1189 112.324 85.1585C112.326 85.201 112.337 85.2425 112.356 85.2803C112.375 85.3182 112.402 85.3514 112.434 85.3777C112.467 85.404 112.505 85.4229 112.545 85.433C112.585 85.443 112.628 85.4441 112.668 85.4361H112.65ZM104.821 84.4091C104.887 84.4099 104.951 84.387 105.002 84.3443C105.056 84.2889 105.086 84.2141 105.086 84.1361C105.086 84.0582 105.056 83.9834 105.002 83.928C104.64 83.4468 104.26 83.0027 103.88 82.5123C103.826 82.4575 103.753 82.4268 103.676 82.4268C103.6 82.4268 103.527 82.4575 103.473 82.5123C103.419 82.5693 103.388 82.6457 103.388 82.7252C103.388 82.8046 103.419 82.881 103.473 82.9379C103.844 83.3821 104.224 83.8632 104.577 84.3165C104.606 84.3599 104.645 84.3948 104.691 84.4175C104.737 84.4403 104.788 84.4501 104.839 84.4461L104.821 84.4091ZM102.522 81.6334C102.559 81.6335 102.596 81.6263 102.63 81.612C102.664 81.5977 102.695 81.5767 102.722 81.5501C102.749 81.5233 102.771 81.491 102.786 81.4552C102.801 81.4194 102.809 81.3809 102.809 81.3419C102.809 81.3029 102.801 81.2644 102.786 81.2286C102.771 81.1928 102.749 81.1605 102.722 81.1337C102.314 80.6896 101.889 80.264 101.454 79.8569C101.428 79.8286 101.397 79.8061 101.362 79.7907C101.327 79.7753 101.289 79.7674 101.251 79.7674C101.213 79.7674 101.175 79.7753 101.14 79.7907C101.105 79.8061 101.073 79.8286 101.047 79.8569C101.019 79.8845 100.997 79.9176 100.982 79.9541C100.967 79.9907 100.959 80.03 100.959 80.0697C100.959 80.1094 100.967 80.1487 100.982 80.1853C100.997 80.2218 101.019 80.2549 101.047 80.2825C101.472 80.6804 101.889 81.106 102.296 81.5316C102.32 81.5759 102.355 81.6124 102.399 81.637C102.442 81.6616 102.491 81.6731 102.54 81.6704L102.522 81.6334ZM99.9429 79.1815C100.028 79.1793 100.11 79.1427 100.169 79.0797C100.223 79.0227 100.254 78.9464 100.254 78.8669C100.254 78.7874 100.223 78.7111 100.169 78.6541C99.7076 78.2655 99.2641 77.8954 98.7572 77.5438C98.7259 77.5209 98.6904 77.5047 98.6528 77.496C98.6152 77.4874 98.5763 77.4865 98.5384 77.4934C98.5005 77.5002 98.4643 77.5148 98.4319 77.5362C98.3996 77.5576 98.3717 77.5853 98.3499 77.6178C98.3271 77.6493 98.3107 77.6851 98.3015 77.7232C98.2923 77.7613 98.2906 77.8008 98.2965 77.8395C98.3024 77.8783 98.3158 77.9154 98.3358 77.9488C98.3559 77.9822 98.3822 78.0113 98.4133 78.0342C98.884 78.3796 99.3455 78.7404 99.7981 79.1167C99.8391 79.1691 99.8967 79.2051 99.961 79.2185L99.9429 79.1815ZM97.0738 77.0904C97.1227 77.0903 97.1707 77.0775 97.2135 77.0532C97.2562 77.0289 97.2922 76.994 97.3181 76.9516C97.3592 76.8839 97.3727 76.8024 97.3558 76.7246C97.3389 76.6468 97.2929 76.5789 97.2277 76.5353C96.7208 76.2207 96.1958 75.9154 95.6709 75.6101C95.6011 75.5741 95.5204 75.5676 95.4459 75.5918C95.3715 75.616 95.3093 75.669 95.2727 75.7396C95.2379 75.8095 95.2318 75.8907 95.2555 75.9653C95.2793 76.0399 95.331 76.1018 95.3994 76.1374C95.9153 76.415 96.4221 76.7111 96.9199 77.0627C96.9429 77.0847 96.97 77.1017 96.9995 77.1129C97.029 77.124 97.0604 77.129 97.0919 77.1274L97.0738 77.0904ZM93.9422 75.425C93.9994 75.4264 94.0557 75.4104 94.104 75.3792C94.1523 75.3479 94.1905 75.3026 94.2137 75.2492C94.2286 75.2134 94.2365 75.1749 94.2368 75.136C94.2372 75.097 94.23 75.0584 94.2157 75.0223C94.2014 74.9862 94.1802 74.9533 94.1535 74.9256C94.1268 74.8978 94.095 74.8758 94.0599 74.8606C93.5168 74.6201 92.9557 74.398 92.3945 74.1945C92.3583 74.1814 92.3199 74.1758 92.2815 74.178C92.2432 74.1803 92.2056 74.1903 92.1711 74.2075C92.1365 74.2247 92.1057 74.2488 92.0803 74.2783C92.055 74.3078 92.0357 74.3422 92.0234 74.3795C92.0106 74.4165 92.0052 74.4558 92.0074 74.495C92.0096 74.5342 92.0194 74.5726 92.0362 74.6079C92.0531 74.6432 92.0766 74.6748 92.1055 74.7007C92.1344 74.7266 92.168 74.7463 92.2045 74.7588C92.7475 74.9531 93.2996 75.1752 93.8245 75.4065C93.8644 75.4366 93.9112 75.4557 93.9603 75.462L93.9422 75.425ZM71.4057 74.6848H71.469L73.1887 74.3147C73.2271 74.3081 73.2637 74.2936 73.2964 74.2722C73.3292 74.2508 73.3574 74.2228 73.3794 74.19C73.4013 74.1572 73.4166 74.1202 73.4243 74.0812C73.4319 74.0422 73.4319 74.0021 73.424 73.9631C73.4067 73.8868 73.3613 73.8203 73.2973 73.7772C73.2333 73.7342 73.1555 73.7179 73.0801 73.7318C72.5009 73.8429 71.9216 73.9724 71.3424 74.1019C71.2677 74.1197 71.2026 74.1661 71.1605 74.2315C71.1184 74.2969 71.1025 74.3764 71.1161 74.4535C71.127 74.5287 71.1642 74.5973 71.2208 74.6466C71.2774 74.6959 71.3495 74.7226 71.4238 74.7218L71.4057 74.6848ZM90.6115 74.2407C90.6773 74.2428 90.7418 74.222 90.7944 74.1816C90.8471 74.1413 90.8847 74.0838 90.9012 74.0187C90.9107 73.981 90.9128 73.9418 90.9075 73.9032C90.9022 73.8647 90.8896 73.8276 90.8702 73.7941C90.8509 73.7606 90.8253 73.7313 90.7949 73.7079C90.7645 73.6845 90.7298 73.6675 90.6929 73.6578C90.1227 73.5005 89.5435 73.3525 88.9552 73.2322C88.8785 73.2186 88.7997 73.2361 88.7355 73.281C88.6712 73.3259 88.6266 73.3948 88.6113 73.4728C88.5977 73.5499 88.6136 73.6293 88.6557 73.6948C88.6978 73.7602 88.7629 73.8066 88.8375 73.8243C89.4168 73.9354 89.987 74.0742 90.5391 74.2314L90.6115 74.2407ZM74.8631 73.9816H74.9174C75.5208 73.8768 76.1001 73.7843 76.6552 73.7041C76.7313 73.6904 76.7993 73.6471 76.8449 73.5833C76.8905 73.5194 76.9101 73.44 76.8995 73.3617C76.8952 73.323 76.8831 73.2856 76.8642 73.2518C76.8452 73.2181 76.8196 73.1886 76.7892 73.1652C76.7587 73.1418 76.7238 73.1251 76.6868 73.1159C76.6497 73.1067 76.6113 73.1054 76.5737 73.1119C75.9854 73.1952 75.4062 73.2877 74.8179 73.3895C74.7423 73.403 74.675 73.4467 74.6309 73.5109C74.5868 73.5751 74.5694 73.6545 74.5825 73.7318C74.5824 73.7711 74.5903 73.81 74.6055 73.846C74.6207 73.8821 74.643 73.9146 74.671 73.9415C74.699 73.9683 74.7321 73.9891 74.7683 74.0024C74.8045 74.0156 74.8429 74.0212 74.8812 74.0187L74.8631 73.9816ZM87.1632 73.5283C87.2336 73.5269 87.3013 73.5002 87.3542 73.4528C87.4072 73.4054 87.4421 73.3404 87.4528 73.2692C87.4579 73.2303 87.4553 73.1907 87.4452 73.1528C87.4352 73.1149 87.4179 73.0794 87.3943 73.0484C87.3707 73.0174 87.3413 72.9915 87.3078 72.9722C87.2744 72.9529 87.2375 72.9407 87.1994 72.9361C86.6201 72.8528 86.0227 72.7881 85.3892 72.7418C85.3516 72.738 85.3137 72.742 85.2777 72.7535C85.2416 72.7651 85.2082 72.784 85.1795 72.809C85.1508 72.8341 85.1272 72.8648 85.1104 72.8994C85.0935 72.9339 85.0837 72.9716 85.0815 73.0101C85.0778 73.0491 85.0816 73.0883 85.0928 73.1257C85.104 73.1631 85.1223 73.1979 85.1467 73.228C85.1711 73.2581 85.2011 73.283 85.235 73.3011C85.2688 73.3193 85.3058 73.3305 85.3439 73.334C85.9322 73.3802 86.5205 73.445 87.0817 73.5283H87.1632ZM78.3567 73.482C78.936 73.4172 79.5243 73.371 80.1035 73.3247C80.1416 73.3224 80.1788 73.3123 80.2131 73.2952C80.2474 73.2781 80.278 73.2543 80.3032 73.2251C80.3284 73.1959 80.3478 73.1618 80.3601 73.1249C80.3724 73.088 80.3775 73.049 80.3751 73.0101C80.3728 72.9704 80.3627 72.9315 80.3455 72.8958C80.3282 72.8601 80.304 72.8284 80.2744 72.8025C80.2448 72.7766 80.2105 72.757 80.1733 72.745C80.1362 72.733 80.097 72.7288 80.0583 72.7326C79.4699 72.7326 78.8816 72.8251 78.2481 72.8899C78.21 72.8933 78.173 72.9045 78.1391 72.9227C78.1052 72.9409 78.0753 72.9658 78.0509 72.9959C78.0265 73.026 78.0082 73.0607 77.997 73.0981C77.9858 73.1355 77.9819 73.1748 77.9856 73.2137C77.981 73.2636 77.9889 73.3139 78.0085 73.3598C78.0281 73.4057 78.0588 73.4458 78.0977 73.4764C78.1366 73.5069 78.1824 73.5268 78.2309 73.5342C78.2793 73.5417 78.3289 73.5365 78.3748 73.519L78.3567 73.482ZM83.6424 73.2415C83.7186 73.2416 83.7919 73.212 83.8474 73.1586C83.903 73.1053 83.9365 73.0323 83.9411 72.9546C83.9423 72.915 83.9357 72.8755 83.9217 72.8385C83.9077 72.8015 83.8865 72.7677 83.8595 72.7393C83.8325 72.7108 83.8002 72.6881 83.7644 72.6727C83.7287 72.6572 83.6903 72.6493 83.6515 72.6493C83.0631 72.6493 82.4658 72.6493 81.8413 72.6493C81.8025 72.6493 81.7641 72.6572 81.7283 72.6727C81.6926 72.6881 81.6602 72.7108 81.6332 72.7393C81.6062 72.7677 81.5851 72.8015 81.571 72.8385C81.557 72.8755 81.5504 72.915 81.5517 72.9546C81.554 73.0315 81.5855 73.1045 81.6396 73.158C81.6937 73.2116 81.766 73.2415 81.8413 73.2415H83.6062H83.6424Z" fill="#999999"/>
<path d="M38.4243 25.1017L35.8721 26.2305L25.6718 18.9581L22.9565 20.494C20.7753 21.8264 18.6574 21.9189 17.6437 21.3267L17.4355 21.4285C15.8607 22.1317 14.9284 21.5025 14.6117 20.7438C14.2949 19.9851 14.4759 18.8934 16.0508 18.1717L16.2589 18.0791C16.449 17.1539 17.2726 15.5995 20.4857 14.6835L23.4453 13.712L25.2554 1.13803L27.8078 0L29.7899 11.6488L37.0848 9.09509L38.1891 6.10655L40.2164 5.33862L40.3612 8.11433L41.0853 8.04956L41.746 9.59472L41.2029 10.1406L43.1217 12.1761L41.1849 13.1661L38.3067 11.9448L31.4914 15.6458L38.4243 25.1017ZM38.2343 11.2694L41.1306 12.5L42.0357 12.0188L40.2798 10.1684L40.9405 9.4837L40.6327 8.75275L39.7277 8.83602L39.5919 6.24536L38.6054 6.61545L37.5012 9.61322L29.2469 12.4907L27.2828 0.915977L25.7532 1.59141L23.9883 14.2117L20.6486 15.3034C17.5351 16.1824 16.9196 17.6073 16.8291 18.3752V18.5695L16.6481 18.6343C16.5331 18.6678 16.4211 18.7111 16.3132 18.7638C15.3448 19.1895 14.9103 19.8649 15.1909 20.5125C15.4715 21.1602 16.2408 21.3082 17.2092 20.8734C17.3182 20.8284 17.4241 20.7758 17.526 20.7161L17.698 20.6143L17.8609 20.7346C18.5216 21.2342 20.4495 21.3268 22.676 19.9759L25.717 18.2364L35.9444 25.5366L37.474 24.8612L30.5411 15.4792L38.2343 11.2694Z" fill="#999999"/>
<path d="M126.018 102.757C126.067 102.757 126.116 102.745 126.159 102.721C126.201 102.696 126.237 102.661 126.263 102.618C126.588 102.112 126.89 101.603 127.168 101.091C127.209 101.023 127.222 100.942 127.205 100.864C127.188 100.786 127.142 100.718 127.077 100.675C127.01 100.634 126.929 100.621 126.853 100.64C126.777 100.659 126.711 100.708 126.67 100.777C126.362 101.285 126.054 101.785 125.765 102.294C125.743 102.327 125.728 102.363 125.72 102.402C125.712 102.441 125.712 102.481 125.719 102.52C125.727 102.559 125.742 102.595 125.764 102.628C125.786 102.661 125.814 102.689 125.846 102.71C125.899 102.74 125.958 102.756 126.018 102.757V102.757ZM127.828 99.6848C127.88 99.6844 127.93 99.6705 127.974 99.6446C128.018 99.6187 128.055 99.5816 128.082 99.5368C128.371 99.0094 128.661 98.482 128.987 97.9546C129.024 97.8855 129.033 97.8046 129.012 97.7288C128.992 97.653 128.944 97.588 128.878 97.5475C128.81 97.5108 128.73 97.5029 128.655 97.5253C128.581 97.5478 128.518 97.5989 128.48 97.6678C128.199 98.1952 127.91 98.7133 127.62 99.2314C127.58 99.3003 127.568 99.3826 127.587 99.4605C127.605 99.5384 127.653 99.6057 127.72 99.6478C127.767 99.674 127.82 99.6868 127.874 99.6848H127.828ZM129.512 96.5205C129.566 96.5198 129.62 96.504 129.666 96.4746C129.712 96.4453 129.75 96.4035 129.774 96.354C130.046 95.8173 130.308 95.2714 130.562 94.7348C130.579 94.6996 130.589 94.6613 130.591 94.6222C130.593 94.5831 130.588 94.5439 130.575 94.5069C130.563 94.4699 130.543 94.4358 130.517 94.4066C130.492 94.3774 130.461 94.3538 130.426 94.3369C130.392 94.3197 130.354 94.3096 130.316 94.3072C130.278 94.3048 130.239 94.3103 130.203 94.3232C130.167 94.3361 130.134 94.3562 130.105 94.3824C130.076 94.4086 130.053 94.4403 130.037 94.4757C129.783 95.0124 129.521 95.549 129.249 96.0856C129.233 96.1208 129.223 96.1591 129.22 96.1982C129.218 96.2373 129.223 96.2765 129.236 96.3136C129.249 96.3506 129.268 96.3847 129.294 96.4138C129.319 96.443 129.35 96.4667 129.385 96.4835C129.409 96.5021 129.437 96.5151 129.467 96.5214C129.497 96.5278 129.528 96.5275 129.557 96.5205H129.512ZM131.041 93.2637C131.098 93.2628 131.153 93.2459 131.201 93.2149C131.249 93.1839 131.288 93.1399 131.313 93.0879L132.019 91.4317C132.049 91.3568 132.048 91.2729 132.018 91.1983C131.987 91.1237 131.929 91.0646 131.856 91.0338C131.784 91.0061 131.704 91.0079 131.633 91.039C131.562 91.07 131.506 91.1278 131.476 91.2004C131.25 91.7463 131.014 92.2922 130.779 92.8473C130.763 92.8824 130.753 92.9205 130.752 92.9594C130.75 92.9982 130.756 93.037 130.77 93.0734C130.783 93.1097 130.804 93.1429 130.83 93.1708C130.857 93.1988 130.889 93.2209 130.924 93.2359C130.974 93.2617 131.031 93.2713 131.087 93.2637H131.041ZM132.408 89.9421C132.466 89.9415 132.523 89.9236 132.571 89.8908C132.619 89.8579 132.657 89.8115 132.68 89.757C132.897 89.1834 133.105 88.619 133.313 88.0546C133.326 88.0175 133.331 87.9782 133.329 87.939C133.327 87.8998 133.317 87.8614 133.3 87.8261C133.284 87.7908 133.26 87.7593 133.231 87.7334C133.202 87.7075 133.169 87.6877 133.132 87.6752C133.06 87.6508 132.982 87.6553 132.913 87.688C132.844 87.7207 132.789 87.7789 132.761 87.851C132.562 88.4154 132.354 88.9705 132.137 89.5349C132.109 89.6087 132.111 89.6903 132.142 89.7627C132.172 89.8352 132.229 89.8928 132.3 89.9235L132.408 89.9421ZM133.621 86.5557C133.681 86.5549 133.74 86.5349 133.789 86.4984C133.837 86.4619 133.874 86.4107 133.892 86.3521C134.092 85.7785 134.273 85.2048 134.445 84.6312C134.468 84.5551 134.46 84.4729 134.425 84.402C134.389 84.3311 134.328 84.2772 134.254 84.2518C134.18 84.2284 134.1 84.2355 134.03 84.2718C133.961 84.3081 133.908 84.3707 133.883 84.4461C133.711 85.0198 133.53 85.5842 133.34 86.1578C133.317 86.2339 133.324 86.3161 133.36 86.387C133.395 86.4579 133.457 86.5118 133.53 86.5372L133.621 86.5557ZM134.671 83.1138C134.735 83.1123 134.796 83.0899 134.847 83.05C134.897 83.01 134.934 82.9546 134.951 82.8917C135.114 82.3088 135.277 81.7259 135.422 81.1523C135.442 81.075 135.431 80.993 135.392 80.9239C135.353 80.8547 135.289 80.8038 135.214 80.7822C135.177 80.7724 135.139 80.7702 135.101 80.7757C135.063 80.7811 135.027 80.794 134.994 80.8138C134.961 80.8336 134.933 80.8597 134.91 80.8908C134.887 80.9219 134.87 80.9573 134.861 80.995C134.707 81.5686 134.553 82.1515 134.39 82.7252C134.379 82.7628 134.376 82.8024 134.38 82.8415C134.384 82.8806 134.395 82.9185 134.414 82.9529C134.432 82.9874 134.458 83.0177 134.488 83.0422C134.518 83.0666 134.552 83.0846 134.589 83.0953L134.671 83.1138ZM135.576 79.6256C135.641 79.6236 135.704 79.5999 135.754 79.5581C135.805 79.5164 135.841 79.4589 135.856 79.3943C135.992 78.8022 136.128 78.21 136.246 77.6271C136.255 77.5894 136.257 77.5502 136.251 77.5117C136.245 77.4733 136.231 77.4366 136.211 77.4037C136.191 77.3708 136.164 77.3425 136.133 77.3204C136.101 77.2984 136.066 77.2831 136.028 77.2755C135.991 77.2659 135.952 77.2641 135.914 77.2701C135.876 77.2761 135.839 77.2899 135.806 77.3106C135.773 77.3312 135.745 77.3585 135.722 77.3906C135.7 77.4227 135.684 77.4591 135.675 77.4976C135.558 78.0805 135.422 78.6634 135.286 79.2555C135.27 79.3327 135.283 79.4135 135.324 79.4808C135.364 79.548 135.429 79.5967 135.503 79.6164L135.576 79.6256ZM136.318 76.0912C136.386 76.0925 136.453 76.069 136.506 76.025C136.559 75.981 136.595 75.9192 136.608 75.8507C136.716 75.2585 136.825 74.6664 136.924 74.0742C136.938 73.9969 136.92 73.9175 136.876 73.8533C136.832 73.7891 136.765 73.7454 136.689 73.7319C136.651 73.7239 136.612 73.7238 136.574 73.7316C136.535 73.7395 136.499 73.7551 136.467 73.7775C136.435 73.8 136.408 73.8288 136.387 73.8623C136.366 73.8958 136.352 73.9332 136.345 73.9724C136.246 74.5553 136.146 75.1475 136.028 75.7396C136.021 75.7786 136.02 75.8187 136.028 75.8577C136.036 75.8967 136.051 75.9337 136.073 75.9665C136.095 75.9993 136.123 76.0273 136.156 76.0487C136.189 76.0701 136.225 76.0846 136.264 76.0912H136.318ZM136.915 72.5383C136.985 72.5412 137.054 72.5172 137.108 72.4709C137.161 72.4247 137.196 72.3596 137.205 72.2885C137.296 71.6871 137.377 71.0857 137.449 70.4935C137.454 70.4546 137.452 70.415 137.442 70.3771C137.432 70.3392 137.415 70.3037 137.391 70.2727C137.367 70.2417 137.338 70.2158 137.305 70.1966C137.271 70.1773 137.234 70.165 137.196 70.1604C137.158 70.1539 137.119 70.1556 137.081 70.1653C137.043 70.175 137.008 70.1926 136.977 70.2169C136.947 70.2413 136.922 70.2719 136.903 70.3067C136.885 70.3416 136.873 70.38 136.87 70.4195C136.798 70.9993 136.716 71.5915 136.626 72.196C136.615 72.2743 136.635 72.3537 136.68 72.4175C136.726 72.4814 136.794 72.5247 136.87 72.5383H136.915ZM137.359 68.9576C137.432 68.9602 137.503 68.9336 137.557 68.8835C137.611 68.8334 137.644 68.7638 137.649 68.6893C137.712 68.0879 137.775 67.4865 137.82 66.8943C137.826 66.8148 137.8 66.7364 137.749 66.6759C137.698 66.6154 137.627 66.5776 137.549 66.5705C137.511 66.5653 137.473 66.5683 137.436 66.5793C137.399 66.5903 137.366 66.6091 137.337 66.6344C137.307 66.6597 137.284 66.691 137.268 66.7262C137.251 66.7615 137.242 66.7998 137.241 66.8388C137.187 67.431 137.133 68.0324 137.069 68.6338C137.066 68.6727 137.069 68.712 137.081 68.7494C137.092 68.7868 137.11 68.8215 137.134 68.8516C137.159 68.8817 137.189 68.9066 137.223 68.9248C137.257 68.943 137.294 68.9541 137.332 68.9576H137.359ZM137.658 65.3677C137.731 65.3679 137.802 65.3392 137.856 65.2876C137.91 65.236 137.943 65.1654 137.947 65.0901C137.947 64.4702 138.02 63.8688 138.038 63.2397C138.04 63.2 138.035 63.1603 138.022 63.1228C138.009 63.0853 137.989 63.0509 137.963 63.0215C137.936 62.9922 137.905 62.9685 137.869 62.9519C137.834 62.9354 137.796 62.9262 137.757 62.9251C137.681 62.9287 137.609 62.9593 137.553 63.0117C137.496 63.0641 137.46 63.1349 137.449 63.2119C137.449 63.8041 137.449 64.4055 137.368 65.0069C137.363 65.0864 137.389 65.1648 137.439 65.2253C137.49 65.2858 137.562 65.3236 137.64 65.3307L137.658 65.3677ZM137.793 61.7593C137.87 61.7593 137.944 61.7281 137.998 61.6726C138.052 61.617 138.083 61.5417 138.083 61.4632C138.083 61.0376 138.083 60.6212 138.083 60.2049V59.659C138.083 59.5805 138.052 59.5051 137.998 59.4496C137.944 59.3941 137.87 59.3629 137.793 59.3629V59.3629C137.717 59.3629 137.643 59.3941 137.589 59.4496C137.534 59.5051 137.504 59.5805 137.504 59.659V60.2049C137.504 60.6212 137.504 61.0376 137.504 61.4539C137.503 61.4936 137.509 61.5331 137.523 61.5701C137.537 61.6071 137.558 61.6408 137.585 61.6693C137.612 61.6978 137.645 61.7204 137.68 61.7359C137.716 61.7513 137.755 61.7593 137.793 61.7593V61.7593ZM137.793 58.1508C137.832 58.1509 137.871 58.1429 137.906 58.1275C137.942 58.112 137.974 58.0894 138.001 58.0609C138.028 58.0324 138.05 57.9987 138.064 57.9617C138.078 57.9247 138.084 57.8852 138.083 57.8455C138.083 57.2256 138.029 56.6242 138.002 55.995C137.995 55.9157 137.958 55.8422 137.898 55.7903C137.839 55.7385 137.763 55.7123 137.685 55.7175C137.647 55.7198 137.609 55.7298 137.575 55.7469C137.541 55.764 137.51 55.7879 137.485 55.8171C137.46 55.8463 137.44 55.8804 137.428 55.9173C137.416 55.9541 137.411 55.9931 137.413 56.032C137.413 56.6149 137.477 57.2163 137.495 57.827C137.49 57.8706 137.496 57.9146 137.51 57.9559C137.525 57.9971 137.548 58.0346 137.578 58.0656C137.608 58.0966 137.645 58.1203 137.685 58.135C137.726 58.1498 137.769 58.1552 137.811 58.1508H137.793ZM137.585 54.5517C137.623 54.5482 137.66 54.537 137.694 54.5188C137.728 54.5006 137.758 54.4758 137.782 54.4457C137.807 54.4156 137.825 54.3808 137.836 54.3434C137.848 54.306 137.851 54.2667 137.848 54.2278C137.793 53.611 137.73 52.9942 137.658 52.3773C137.654 52.3378 137.643 52.2994 137.625 52.2646C137.606 52.2297 137.581 52.1991 137.55 52.1748C137.52 52.1504 137.484 52.1329 137.447 52.1231C137.409 52.1134 137.37 52.1118 137.332 52.1183C137.256 52.1298 137.187 52.1708 137.14 52.2329C137.092 52.2949 137.07 52.3732 137.078 52.4514C137.151 53.0158 137.214 53.6172 137.268 54.2371C137.265 54.2826 137.272 54.3284 137.288 54.3708C137.305 54.4133 137.331 54.4512 137.364 54.4817C137.397 54.5121 137.437 54.5343 137.48 54.5465C137.523 54.5586 137.568 54.5604 137.612 54.5517H137.585ZM137.151 50.971C137.226 50.9574 137.294 50.9138 137.338 50.8496C137.382 50.7854 137.399 50.7059 137.386 50.6286L137.332 50.2678C137.25 49.7959 137.16 49.3426 137.069 48.8429C137.062 48.8046 137.047 48.7681 137.025 48.7357C137.004 48.7032 136.976 48.6755 136.945 48.6539C136.913 48.6324 136.877 48.6176 136.839 48.6104C136.801 48.6031 136.763 48.6035 136.725 48.6116C136.687 48.6181 136.651 48.6326 136.618 48.6542C136.586 48.6757 136.558 48.7039 136.537 48.7369C136.516 48.7699 136.501 48.8071 136.495 48.846C136.488 48.885 136.49 48.9249 136.499 48.9632C136.59 49.4351 136.671 49.8885 136.752 50.3696L136.816 50.7212C136.82 50.7628 136.832 50.8031 136.853 50.8391C136.874 50.8752 136.902 50.9063 136.936 50.9301C136.969 50.9539 137.007 50.9698 137.048 50.9769C137.088 50.984 137.129 50.982 137.169 50.971H137.151ZM136.454 47.4366H136.517C136.554 47.429 136.59 47.4137 136.621 47.3917C136.653 47.3696 136.679 47.3413 136.7 47.3084C136.72 47.2756 136.733 47.2388 136.739 47.2004C136.745 47.162 136.744 47.1227 136.734 47.085C136.599 46.4928 136.463 45.9099 136.309 45.3178C136.299 45.2799 136.281 45.2446 136.257 45.2138C136.233 45.183 136.203 45.1574 136.17 45.1384C136.136 45.1195 136.099 45.1076 136.061 45.1034C136.023 45.0993 135.984 45.1029 135.947 45.1142C135.91 45.1239 135.876 45.141 135.845 45.1644C135.815 45.1877 135.789 45.217 135.77 45.2505C135.75 45.2841 135.738 45.3211 135.732 45.3597C135.727 45.3982 135.729 45.4374 135.739 45.4751C135.893 46.058 136.038 46.6316 136.164 47.2145C136.183 47.282 136.223 47.341 136.28 47.3814C136.336 47.4218 136.403 47.4413 136.472 47.4366H136.454ZM135.549 43.9577H135.63C135.667 43.9471 135.702 43.929 135.732 43.9045C135.762 43.8801 135.787 43.8498 135.806 43.8153C135.824 43.7809 135.836 43.743 135.84 43.7039C135.844 43.6648 135.84 43.6252 135.829 43.5876C135.657 43.0047 135.476 42.431 135.286 41.8574C135.274 41.8201 135.255 41.7858 135.229 41.7562C135.204 41.7267 135.173 41.7026 135.139 41.6854C135.104 41.6682 135.067 41.6582 135.028 41.6559C134.99 41.6537 134.951 41.6593 134.915 41.6723C134.879 41.6848 134.845 41.7046 134.816 41.7305C134.787 41.7564 134.764 41.7879 134.747 41.8233C134.73 41.8586 134.72 41.8969 134.718 41.9362C134.716 41.9754 134.721 42.0146 134.734 42.0517C134.924 42.6161 135.096 43.1897 135.268 43.7634C135.289 43.8233 135.329 43.8747 135.381 43.9097C135.434 43.9447 135.495 43.9615 135.558 43.9577H135.549ZM134.417 40.5343C134.45 40.5429 134.484 40.5429 134.517 40.5343C134.589 40.5072 134.647 40.4521 134.68 40.381C134.712 40.3098 134.715 40.2286 134.689 40.155C134.481 39.5906 134.264 39.0262 134.028 38.471C134.014 38.4343 133.993 38.4008 133.967 38.3725C133.94 38.3442 133.908 38.3216 133.872 38.3061C133.837 38.2906 133.799 38.2825 133.76 38.2822C133.722 38.2819 133.684 38.2895 133.648 38.3045C133.613 38.3196 133.581 38.3417 133.554 38.3694C133.528 38.3972 133.507 38.43 133.492 38.4661C133.478 38.5022 133.471 38.5409 133.471 38.5798C133.471 38.6187 133.479 38.6572 133.494 38.6931C133.72 39.2482 133.938 39.8034 134.137 40.3678C134.164 40.4217 134.205 40.4664 134.257 40.496C134.308 40.5257 134.367 40.539 134.426 40.5343H134.417ZM133.087 37.259C133.129 37.2677 133.172 37.2677 133.214 37.259C133.284 37.2248 133.338 37.1642 133.365 37.09C133.392 37.0157 133.389 36.9337 133.358 36.8611C133.105 36.3152 132.852 35.7693 132.58 35.2234C132.544 35.1552 132.483 35.1039 132.411 35.0798C132.338 35.0557 132.26 35.0608 132.191 35.0939C132.12 35.1297 132.066 35.1926 132.041 35.2689C132.016 35.3451 132.021 35.4286 132.055 35.501C132.327 36.0284 132.58 36.565 132.824 37.1109C132.85 37.1584 132.888 37.1976 132.935 37.2238C132.981 37.25 133.034 37.2622 133.087 37.259V37.259ZM131.494 34.0391C131.538 34.0517 131.585 34.0517 131.63 34.0391C131.664 34.0207 131.694 33.9954 131.719 33.9648C131.743 33.9342 131.762 33.8989 131.773 33.861C131.784 33.823 131.787 33.7832 131.783 33.7439C131.778 33.7045 131.766 33.6665 131.747 33.632C131.458 33.1046 131.159 32.5772 130.842 32.0684C130.824 32.0339 130.798 32.0038 130.768 31.9798C130.737 31.9558 130.702 31.9385 130.665 31.9289C130.627 31.9194 130.589 31.9178 130.551 31.9243C130.513 31.9308 130.476 31.9452 130.444 31.9666C130.411 31.9866 130.383 32.013 130.36 32.0443C130.337 32.0756 130.321 32.1112 130.312 32.149C130.302 32.1868 130.3 32.2261 130.306 32.2647C130.312 32.3033 130.325 32.3403 130.345 32.3737C130.652 32.8826 130.942 33.4007 131.25 33.9281C131.279 33.9537 131.314 33.9727 131.352 33.9839C131.389 33.995 131.428 33.9981 131.467 33.9929L131.494 34.0391ZM129.684 30.9581C129.737 30.9745 129.794 30.9745 129.847 30.9581C129.879 30.9366 129.907 30.9086 129.929 30.8759C129.951 30.8432 129.966 30.8063 129.973 30.7675C129.981 30.7287 129.981 30.6887 129.973 30.6499C129.965 30.6111 129.95 30.5743 129.928 30.5417C129.593 30.0421 129.258 29.5425 128.905 29.0521C128.859 28.9899 128.79 28.9484 128.714 28.9364C128.639 28.9243 128.561 28.9425 128.498 28.9873C128.437 29.0351 128.397 29.105 128.385 29.1825C128.373 29.2601 128.391 29.3392 128.435 29.4037C128.779 29.8848 129.114 30.3752 129.439 30.8748C129.497 30.9091 129.564 30.9221 129.63 30.9118L129.684 30.9581ZM89.8603 28.9133H90.2314C90.2694 28.9109 90.3067 28.9009 90.3409 28.8838C90.3752 28.8667 90.4058 28.8429 90.431 28.8136C90.4562 28.7844 90.4756 28.7504 90.4879 28.7135C90.5002 28.6766 90.5053 28.6376 90.5029 28.5987C90.5018 28.5594 90.4928 28.5207 90.4765 28.485C90.4602 28.4494 90.4369 28.4176 90.408 28.3915C90.3792 28.3655 90.3454 28.3458 90.3088 28.3337C90.2721 28.3216 90.2334 28.3173 90.1951 28.3211C89.8489 28.3536 89.5005 28.3536 89.1543 28.3211C88.9469 28.2945 88.7413 28.2543 88.5389 28.2009C88.4633 28.1809 88.3831 28.1921 88.3154 28.2318C88.2478 28.2716 88.198 28.3369 88.1768 28.4137C88.1674 28.452 88.1656 28.4918 88.1715 28.5308C88.1774 28.5698 88.1908 28.6072 88.2111 28.6409C88.2313 28.6745 88.2579 28.7036 88.2893 28.7266C88.3208 28.7495 88.3564 28.7658 88.394 28.7745C88.6224 28.8394 88.8555 28.8858 89.091 28.9133C89.3148 28.9088 89.5383 28.8933 89.7607 28.867L89.8603 28.9133ZM91.9419 28.5524H92.0325C92.6204 28.3413 93.1684 28.0284 93.6525 27.6272C93.7067 27.5702 93.7371 27.4939 93.7371 27.4144C93.7371 27.3349 93.7067 27.2586 93.6525 27.2016C93.6255 27.1731 93.5932 27.1504 93.5574 27.1349C93.5217 27.1194 93.4832 27.1114 93.4444 27.1114C93.4056 27.1114 93.3671 27.1194 93.3313 27.1349C93.2956 27.1504 93.2632 27.1731 93.2362 27.2016C92.8038 27.5547 92.3177 27.8329 91.7971 28.0251C91.7607 28.0376 91.7271 28.0573 91.6982 28.0832C91.6693 28.1091 91.6457 28.1407 91.6289 28.176C91.612 28.2113 91.6022 28.2497 91.6 28.2889C91.5978 28.3281 91.6033 28.3674 91.6161 28.4044C91.6445 28.4369 91.6795 28.4628 91.7185 28.4804C91.7575 28.4979 91.7997 28.5067 91.8424 28.5062L91.9419 28.5524ZM127.647 28.0528C127.713 28.0536 127.777 28.0307 127.828 27.9881C127.883 27.9311 127.913 27.8547 127.913 27.7753C127.913 27.6958 127.883 27.6194 127.828 27.5625C127.457 27.0906 127.068 26.6372 126.688 26.1746C126.632 26.1192 126.558 26.0882 126.48 26.0882C126.402 26.0882 126.327 26.1192 126.272 26.1746C126.217 26.2316 126.187 26.3079 126.187 26.3874C126.187 26.4669 126.217 26.5432 126.272 26.6002C126.652 27.0443 127.032 27.5254 127.394 27.9696C127.441 27.9954 127.494 28.0081 127.548 28.0066L127.647 28.0528ZM86.8644 28.0066C86.9121 28.0052 86.9588 27.9928 87.0011 27.9703C87.0434 27.9479 87.0803 27.916 87.1088 27.877C87.1499 27.8093 87.1634 27.7278 87.1465 27.65C87.1295 27.5722 87.0835 27.5043 87.0183 27.4607C86.5514 27.1437 86.1283 26.764 85.7603 26.3319C85.7061 26.2771 85.6328 26.2463 85.5566 26.2463C85.4803 26.2463 85.4072 26.2771 85.353 26.3319C85.2988 26.3889 85.2685 26.4652 85.2685 26.5447C85.2685 26.6242 85.2988 26.7005 85.353 26.7575C85.7544 27.2361 86.2207 27.6536 86.7377 27.9973C86.7466 28.0009 86.7557 28.004 86.7649 28.0066H86.8644ZM94.5848 26.2949C94.6368 26.2935 94.6875 26.2782 94.7319 26.2506C94.7764 26.223 94.813 26.1841 94.8382 26.1376C95.137 25.5614 95.3303 24.9343 95.4084 24.2871C95.4135 24.2482 95.4109 24.2086 95.4009 24.1707C95.3909 24.1328 95.3735 24.0973 95.3499 24.0663C95.3263 24.0353 95.297 24.0094 95.2635 23.9902C95.23 23.9709 95.1932 23.9586 95.155 23.954C95.0795 23.9434 95.0029 23.9637 94.9419 24.0105C94.8809 24.0573 94.8403 24.1267 94.8291 24.2038C94.7541 24.7655 94.5858 25.31 94.3314 25.8138C94.3124 25.8482 94.3004 25.8863 94.2961 25.9256C94.2917 25.9649 94.2951 26.0047 94.3061 26.0427C94.3171 26.0807 94.3354 26.116 94.3599 26.1466C94.3845 26.1772 94.4148 26.2024 94.449 26.2209C94.4605 26.2308 94.4726 26.2401 94.4852 26.2486L94.5848 26.2949ZM125.312 25.3696C125.39 25.3705 125.464 25.3406 125.52 25.2864C125.575 25.2294 125.605 25.153 125.605 25.0736C125.605 24.9941 125.575 24.9177 125.52 24.8608C125.104 24.4259 124.679 24.0003 124.253 23.5839C124.198 23.5285 124.123 23.4975 124.045 23.4975C123.967 23.4975 123.893 23.5285 123.837 23.5839C123.783 23.6393 123.753 23.7142 123.753 23.7921C123.753 23.8701 123.783 23.9449 123.837 24.0003C124.253 24.4074 124.67 24.833 125.077 25.2586C125.118 25.2829 125.165 25.2957 125.213 25.2956L125.312 25.3696ZM84.5836 25.3696C84.6285 25.3784 84.6746 25.3784 84.7194 25.3696C84.7868 25.3305 84.8372 25.2669 84.8607 25.1914C84.8842 25.116 84.879 25.0342 84.8461 24.9625C84.5912 24.4476 84.4056 23.8998 84.294 23.3341C84.2855 23.2956 84.2696 23.2592 84.2471 23.2271C84.2247 23.195 84.1962 23.1678 84.1633 23.1471C84.1304 23.1264 84.0938 23.1126 84.0556 23.1066C84.0175 23.1006 83.9785 23.1024 83.941 23.112C83.9035 23.1198 83.8678 23.135 83.8361 23.1569C83.8044 23.1788 83.7772 23.2069 83.7562 23.2396C83.7351 23.2723 83.7206 23.3089 83.7135 23.3474C83.7064 23.3858 83.7068 23.4253 83.7148 23.4636C83.8461 24.0757 84.0497 24.6691 84.3212 25.2308C84.3647 25.2588 84.4146 25.2747 84.466 25.2771L84.5836 25.3696ZM122.769 22.9177C122.81 22.9176 122.851 22.9084 122.888 22.8908C122.926 22.8733 122.959 22.8478 122.986 22.816C123.04 22.759 123.071 22.6826 123.071 22.6032C123.071 22.5237 123.04 22.4473 122.986 22.3904L122.443 21.9277L121.601 21.2523C121.539 21.2037 121.46 21.1823 121.382 21.1927C121.304 21.2031 121.233 21.2445 121.185 21.3078C121.14 21.3712 121.121 21.4496 121.131 21.5271C121.141 21.6045 121.18 21.6751 121.239 21.7242L122.072 22.3904L122.606 22.853C122.622 22.8452 122.637 22.8359 122.651 22.8252L122.769 22.9177ZM95.146 22.8345C95.2237 22.8252 95.2947 22.7851 95.3438 22.7228C95.3929 22.6605 95.4161 22.581 95.4084 22.5014C95.3393 21.8736 95.212 21.254 95.0283 20.6509C95.0179 20.613 95.0002 20.5777 94.9763 20.5469C94.9524 20.5161 94.9227 20.4905 94.889 20.4715C94.8553 20.4526 94.8183 20.4407 94.78 20.4365C94.7418 20.4324 94.7031 20.4361 94.6662 20.4473C94.6293 20.4578 94.5949 20.4759 94.5651 20.5005C94.5353 20.5251 94.5107 20.5557 94.4929 20.5904C94.4751 20.6251 94.4644 20.6631 94.4616 20.7021C94.4587 20.7412 94.4637 20.7805 94.4762 20.8175C94.6402 21.377 94.7583 21.9495 94.8291 22.5291C94.8413 22.5793 94.8661 22.6253 94.901 22.6627C94.9359 22.7 94.9798 22.7273 95.0283 22.742L95.146 22.8345ZM83.8777 21.9092C83.9515 21.9094 84.0225 21.8807 84.0763 21.8292C84.1302 21.7776 84.1627 21.7069 84.1673 21.6317C84.209 21.0627 84.3373 20.504 84.5474 19.9755C84.5623 19.9397 84.5702 19.9012 84.5705 19.8622C84.5709 19.8233 84.5637 19.7847 84.5494 19.7486C84.5351 19.7125 84.514 19.6796 84.4872 19.6519C84.4605 19.6241 84.4287 19.602 84.3936 19.5869C84.3585 19.5716 84.3209 19.5636 84.2828 19.5633C84.2447 19.563 84.2069 19.5703 84.1716 19.5849C84.1363 19.5995 84.1041 19.6211 84.077 19.6484C84.0499 19.6758 84.0283 19.7083 84.0135 19.7442C83.7736 20.3331 83.6298 20.9582 83.5881 21.5947C83.5843 21.6343 83.5885 21.6743 83.6002 21.7122C83.612 21.7502 83.6311 21.7853 83.6564 21.8156C83.6818 21.8458 83.7129 21.8705 83.7478 21.8882C83.7827 21.9059 83.8207 21.9162 83.8596 21.9185L83.8777 21.9092ZM119.846 20.6047C119.894 20.6055 119.941 20.5941 119.984 20.5715C120.026 20.5489 120.063 20.5157 120.09 20.4751C120.133 20.4096 120.149 20.3296 120.136 20.252C120.122 20.1744 120.08 20.1052 120.018 20.0588C119.529 19.7164 119.022 19.3833 118.524 19.0688C118.457 19.0276 118.376 19.0153 118.3 19.0343C118.224 19.0533 118.158 19.1023 118.117 19.1705C118.097 19.2039 118.084 19.2409 118.079 19.2795C118.073 19.3181 118.075 19.3574 118.084 19.3952C118.093 19.433 118.11 19.4686 118.132 19.4999C118.155 19.5312 118.184 19.5577 118.216 19.5776C118.711 19.8922 119.2 20.2161 119.683 20.5491C119.73 20.5841 119.787 20.6034 119.846 20.6047ZM94.0508 19.263C94.0895 19.2725 94.1298 19.2725 94.1685 19.263C94.24 19.2306 94.2962 19.1707 94.325 19.0963C94.3537 19.0219 94.3528 18.9389 94.3223 18.8652C94.096 18.3378 93.8336 17.7827 93.5349 17.2275C93.5169 17.1925 93.4922 17.1615 93.4622 17.1364C93.4323 17.1113 93.3978 17.0926 93.3607 17.0814C93.3235 17.0702 93.2845 17.0667 93.2461 17.0711C93.2076 17.0756 93.1704 17.0879 93.1366 17.1072C93.0692 17.1463 93.0193 17.2105 92.9973 17.2865C92.9754 17.3625 92.9831 17.4442 93.019 17.5144C93.3086 18.051 93.5711 18.5876 93.7883 19.1058C93.8096 19.1595 93.8458 19.2056 93.8924 19.2385C93.9391 19.2714 93.9941 19.2896 94.0508 19.2908V19.263ZM116.795 18.7542C116.849 18.7554 116.902 18.7414 116.949 18.7136C116.995 18.6858 117.033 18.6454 117.058 18.5969C117.094 18.5267 117.102 18.445 117.08 18.369C117.058 18.293 117.008 18.2288 116.94 18.1898C116.424 17.903 115.89 17.6254 115.356 17.3571C115.322 17.3398 115.285 17.3297 115.246 17.3273C115.208 17.325 115.17 17.3304 115.133 17.3433C115.097 17.3562 115.064 17.3764 115.035 17.4025C115.007 17.4287 114.984 17.4605 114.967 17.4959C114.95 17.5311 114.94 17.5693 114.938 17.6084C114.936 17.6476 114.941 17.6868 114.954 17.7238C114.966 17.7608 114.986 17.7949 115.012 17.824C115.037 17.8532 115.068 17.8769 115.103 17.8937C115.628 18.1528 116.153 18.4303 116.66 18.7172C116.701 18.7423 116.748 18.7552 116.795 18.7542V18.7542ZM85.0452 18.5229C85.0886 18.5222 85.1313 18.512 85.1703 18.4928C85.2094 18.4736 85.2439 18.446 85.2715 18.4118C85.6374 17.9742 86.0504 17.58 86.5024 17.2368C86.5346 17.2147 86.5619 17.1861 86.5827 17.1527C86.6034 17.1193 86.6173 17.0819 86.6232 17.0428C86.6292 17.0037 86.6271 16.9637 86.6172 16.9255C86.6074 16.8872 86.5898 16.8514 86.5657 16.8204C86.5442 16.7876 86.5162 16.7597 86.4835 16.7384C86.4508 16.7172 86.4142 16.703 86.376 16.697C86.3377 16.6909 86.2987 16.6929 86.2613 16.7031C86.2238 16.7132 86.1888 16.7311 86.1585 16.7557C85.6659 17.1278 85.2165 17.5561 84.819 18.0325C84.7674 18.089 84.7388 18.1634 84.7388 18.2407C84.7388 18.3179 84.7674 18.3923 84.819 18.4489C84.8589 18.4853 84.9075 18.5104 84.9599 18.5218C85.0123 18.5331 85.0666 18.5303 85.1176 18.5136L85.0452 18.5229ZM113.628 17.1813C113.685 17.1785 113.741 17.1598 113.789 17.1272C113.836 17.0946 113.875 17.0494 113.899 16.9962C113.914 16.9604 113.922 16.9219 113.922 16.8829C113.923 16.844 113.915 16.8054 113.901 16.7693C113.887 16.7332 113.866 16.7003 113.839 16.6726C113.812 16.6448 113.78 16.6228 113.745 16.6076C113.193 16.3671 112.641 16.145 112.089 15.9322C112.016 15.905 111.935 15.9081 111.864 15.941C111.793 15.9738 111.737 16.0338 111.709 16.108C111.683 16.1841 111.687 16.2676 111.721 16.3404C111.755 16.4132 111.816 16.4694 111.89 16.4966C112.433 16.7001 112.976 16.9222 113.51 17.1535C113.561 17.1761 113.618 17.1826 113.673 17.172L113.628 17.1813ZM87.8419 16.3671C87.8832 16.3805 87.9275 16.3805 87.9687 16.3671C88.4868 16.1116 89.0186 15.886 89.5616 15.6916C89.598 15.6791 89.6317 15.6594 89.6606 15.6335C89.6894 15.6076 89.713 15.576 89.7298 15.5407C89.7467 15.5054 89.7565 15.467 89.7587 15.4278C89.7609 15.3886 89.7554 15.3493 89.7426 15.3123C89.7304 15.275 89.711 15.2406 89.6857 15.2111C89.6603 15.1816 89.6295 15.1575 89.595 15.1403C89.5604 15.1231 89.5229 15.1131 89.4846 15.1108C89.4462 15.1086 89.4078 15.1141 89.3715 15.1272C88.8039 15.3293 88.2478 15.5641 87.7062 15.8304C87.6372 15.8679 87.5853 15.9314 87.5616 16.0075C87.5379 16.0836 87.5443 16.1662 87.5794 16.2375C87.6127 16.2872 87.66 16.3253 87.7149 16.3467C87.7699 16.3682 87.83 16.3721 87.8872 16.3578L87.8419 16.3671ZM92.3673 16.1172C92.4224 16.1207 92.4768 16.1043 92.5212 16.071C92.5542 16.0511 92.5828 16.0246 92.6054 15.9931C92.6279 15.9615 92.6439 15.9255 92.6524 15.8874C92.6609 15.8493 92.6617 15.8098 92.6547 15.7713C92.6477 15.7329 92.6331 15.6963 92.6117 15.6639C92.4669 15.4233 92.3131 15.192 92.1592 14.9422L92.9647 14.7757C93.0403 14.7621 93.1075 14.7184 93.1516 14.6542C93.1957 14.5901 93.2132 14.5106 93.2 14.4333C93.1935 14.3941 93.1794 14.3566 93.1584 14.3231C93.1374 14.2897 93.1101 14.2608 93.078 14.2384C93.0459 14.2159 93.0097 14.2003 92.9716 14.1925C92.9335 14.1847 92.8942 14.1847 92.8561 14.1928C92.5031 14.2575 92.1501 14.3315 91.8062 14.4148L91.6252 14.1557C91.6034 14.1232 91.5756 14.0955 91.5432 14.0741C91.5108 14.0527 91.4747 14.0382 91.4367 14.0313C91.3988 14.0244 91.3599 14.0253 91.3223 14.034C91.2848 14.0426 91.2492 14.0589 91.2179 14.0817C91.1861 14.1039 91.1589 14.1324 91.138 14.1655C91.1171 14.1986 91.1029 14.2356 91.0961 14.2744C91.0894 14.3131 91.0903 14.3529 91.0988 14.3913C91.1073 14.4297 91.1231 14.466 91.1455 14.4981L91.1908 14.5628H91.1183C91.0428 14.5846 90.9782 14.635 90.9379 14.7038C90.8975 14.7726 90.8843 14.8546 90.9011 14.9329C90.9242 15.0084 90.9743 15.0723 91.0414 15.1117C91.1085 15.1512 91.1877 15.1633 91.2631 15.1457L91.5437 15.081C91.7519 15.3771 91.9419 15.6824 92.123 16.0062C92.1515 16.041 92.1877 16.0684 92.2286 16.0861C92.2695 16.1038 92.314 16.1113 92.3583 16.108L92.3673 16.1172ZM110.342 15.9229C110.404 15.9257 110.466 15.9071 110.517 15.8703C110.567 15.8334 110.605 15.7803 110.623 15.7194C110.646 15.6433 110.639 15.5611 110.603 15.4902C110.568 15.4193 110.507 15.3655 110.433 15.34C109.872 15.1642 109.292 14.9884 108.722 14.8404C108.685 14.8293 108.647 14.8261 108.608 14.8309C108.57 14.8358 108.534 14.8486 108.5 14.8685C108.467 14.8885 108.439 14.9152 108.416 14.9469C108.393 14.9787 108.378 15.0149 108.369 15.0532C108.36 15.0909 108.357 15.1301 108.363 15.1686C108.368 15.2071 108.381 15.2442 108.4 15.2778C108.419 15.3113 108.445 15.3405 108.475 15.3639C108.506 15.3873 108.54 15.4044 108.577 15.4141C109.138 15.5621 109.7 15.7379 110.261 15.9137L110.342 15.9229ZM106.939 14.9977C107.006 14.9986 107.072 14.9748 107.123 14.9307C107.175 14.8865 107.209 14.8249 107.22 14.7571C107.228 14.7188 107.228 14.6793 107.221 14.6409C107.214 14.6024 107.199 14.5658 107.178 14.5331C107.157 14.5004 107.13 14.4723 107.098 14.4504C107.067 14.4285 107.031 14.4133 106.993 14.4055C106.414 14.276 105.826 14.165 105.247 14.0725C105.171 14.059 105.093 14.0768 105.031 14.1219C104.968 14.167 104.925 14.2358 104.912 14.313C104.904 14.3521 104.904 14.3924 104.913 14.4314C104.921 14.4703 104.937 14.5071 104.96 14.5393C104.983 14.5715 105.012 14.5985 105.046 14.6185C105.08 14.6384 105.117 14.651 105.156 14.6554C105.726 14.7571 106.306 14.8682 106.876 14.9884L106.939 14.9977ZM94.6572 14.4888C95.2274 14.4056 95.8157 14.3408 96.395 14.2945C96.4726 14.2874 96.5444 14.2496 96.5952 14.1891C96.6459 14.1286 96.6715 14.0502 96.6665 13.9707C96.6631 13.9317 96.6521 13.8939 96.6343 13.8593C96.6165 13.8246 96.5922 13.794 96.5628 13.769C96.5333 13.7441 96.4993 13.7254 96.4628 13.7139C96.4262 13.7025 96.3877 13.6986 96.3497 13.7024C95.7614 13.7024 95.164 13.8134 94.5395 13.8967C94.5016 13.9011 94.4651 13.9135 94.4321 13.9329C94.399 13.9523 94.3701 13.9783 94.3473 14.0095C94.3244 14.0407 94.308 14.0763 94.299 14.1141C94.2901 14.152 94.2888 14.1913 94.2952 14.2297C94.2984 14.2747 94.3117 14.3182 94.3339 14.3571C94.3561 14.396 94.3867 14.4292 94.4233 14.4542C94.46 14.4792 94.5018 14.4953 94.5454 14.5013C94.5891 14.5073 94.6335 14.503 94.6753 14.4888H94.6572ZM103.455 14.4148C103.527 14.4151 103.597 14.3878 103.65 14.3381C103.704 14.2885 103.737 14.2201 103.744 14.1465C103.752 14.0693 103.73 13.9922 103.682 13.9316C103.635 13.8711 103.566 13.832 103.491 13.8227C102.902 13.7486 102.305 13.6931 101.681 13.6561C101.643 13.6536 101.604 13.6588 101.568 13.6714C101.532 13.684 101.499 13.7038 101.47 13.7296C101.442 13.7554 101.418 13.7866 101.402 13.8217C101.385 13.8567 101.375 13.8948 101.373 13.9337C101.369 13.9729 101.373 14.0124 101.385 14.0498C101.397 14.0873 101.416 14.1218 101.442 14.1513C101.467 14.1808 101.498 14.2046 101.533 14.2213C101.568 14.238 101.606 14.2472 101.644 14.2483C102.224 14.2945 102.812 14.3408 103.382 14.4148H103.455ZM98.1689 14.1928C98.7572 14.1928 99.3364 14.1928 99.9248 14.1928C99.9624 14.194 99.9998 14.1875 100.035 14.1736C100.07 14.1598 100.102 14.1388 100.129 14.1121C100.156 14.0853 100.178 14.0533 100.192 14.0179C100.207 13.9824 100.214 13.9444 100.214 13.9059C100.216 13.867 100.209 13.8283 100.196 13.7919C100.182 13.7555 100.162 13.7222 100.136 13.6938C100.11 13.6655 100.079 13.6426 100.044 13.6266C100.009 13.6106 99.9719 13.6018 99.9338 13.6006C99.3365 13.6006 98.7482 13.6006 98.1236 13.6006C98.0848 13.6017 98.0466 13.6109 98.0113 13.6275C97.976 13.644 97.9443 13.6677 97.9181 13.6971C97.8919 13.7264 97.8718 13.7609 97.8589 13.7983C97.846 13.8358 97.8406 13.8755 97.8431 13.9152C97.8449 13.9576 97.8557 13.9992 97.8747 14.037C97.8936 14.0748 97.9203 14.108 97.953 14.1344C97.9856 14.1607 98.0234 14.1795 98.0638 14.1896C98.1042 14.1997 98.1462 14.2008 98.187 14.1928H98.1689ZM90.34 13.1657C90.4059 13.1665 90.4699 13.1436 90.5209 13.101C90.5746 13.0456 90.6046 12.9707 90.6046 12.8928C90.6046 12.8148 90.5746 12.74 90.5209 12.6846C90.1589 12.2035 89.7788 11.7594 89.3987 11.269C89.3444 11.2142 89.2713 11.1834 89.195 11.1834C89.1188 11.1834 89.0456 11.2142 88.9914 11.269C88.9372 11.326 88.9069 11.4023 88.9069 11.4818C88.9069 11.5613 88.9372 11.6376 88.9914 11.6946C89.3625 12.1387 89.7426 12.6198 90.0956 13.0732C90.1242 13.1166 90.1636 13.1514 90.2097 13.1742C90.2558 13.1969 90.307 13.2068 90.358 13.2027L90.34 13.1657ZM88.041 10.39C88.078 10.3902 88.1146 10.3829 88.1488 10.3687C88.1829 10.3544 88.214 10.3333 88.2402 10.3067C88.2678 10.2799 88.2899 10.2477 88.3049 10.2119C88.32 10.1761 88.3277 10.1375 88.3277 10.0986C88.3277 10.0596 88.32 10.0211 88.3049 9.98527C88.2899 9.94948 88.2678 9.9172 88.2402 9.8904C87.8329 9.44628 87.4075 9.02067 86.973 8.61356C86.9468 8.58529 86.9153 8.56277 86.8802 8.54738C86.8452 8.53199 86.8075 8.52403 86.7694 8.52403C86.7313 8.52403 86.6936 8.53199 86.6586 8.54738C86.6235 8.56277 86.592 8.58529 86.5657 8.61356C86.5378 8.64117 86.5157 8.67422 86.5005 8.71078C86.4853 8.74734 86.4775 8.78664 86.4775 8.82635C86.4775 8.86606 86.4853 8.90536 86.5005 8.94192C86.5157 8.97848 86.5378 9.01156 86.5657 9.03917C86.9911 9.43702 87.4075 9.86263 87.8148 10.2882C87.8386 10.3326 87.8742 10.3691 87.9174 10.3936C87.9606 10.4182 88.0098 10.4298 88.0592 10.427L88.041 10.39ZM85.4616 7.93813C85.5472 7.9359 85.6284 7.89936 85.6878 7.83637C85.742 7.77938 85.7723 7.70302 85.7723 7.62355C85.7723 7.54408 85.742 7.46773 85.6878 7.41074C85.2263 7.02214 84.7828 6.65206 84.2759 6.30047C84.2446 6.2776 84.209 6.26135 84.1715 6.25269C84.1339 6.24403 84.095 6.24312 84.0571 6.25001C84.0191 6.2569 83.983 6.27147 83.9506 6.29284C83.9182 6.31421 83.8904 6.34196 83.8686 6.37447C83.8458 6.40597 83.8294 6.44179 83.8202 6.47985C83.811 6.51791 83.8093 6.55745 83.8152 6.59618C83.8211 6.63491 83.8344 6.67207 83.8545 6.70548C83.8745 6.7389 83.9009 6.76792 83.932 6.79084C84.4026 7.13626 84.8642 7.49709 85.3167 7.87336C85.3577 7.92571 85.4154 7.96173 85.4797 7.97515L85.4616 7.93813ZM82.5925 5.84708C82.6414 5.84691 82.6894 5.8341 82.7321 5.80984C82.7749 5.78557 82.8109 5.75063 82.8368 5.7083C82.8779 5.64055 82.8914 5.55908 82.8745 5.48128C82.8576 5.40349 82.8116 5.33556 82.7463 5.29196C82.2395 4.97738 81.7145 4.67205 81.1896 4.36672C81.1198 4.33078 81.0391 4.32421 80.9646 4.34842C80.8902 4.37264 80.828 4.4257 80.7913 4.49624C80.7566 4.56619 80.7504 4.64736 80.7742 4.72196C80.798 4.79655 80.8497 4.85846 80.9181 4.89409C81.434 5.17166 81.9408 5.46773 82.4386 5.81932C82.4616 5.84133 82.4886 5.8584 82.5182 5.86953C82.5477 5.88065 82.5791 5.88561 82.6106 5.8841L82.5925 5.84708ZM79.4609 4.18166C79.5181 4.18304 79.5744 4.16709 79.6227 4.13581C79.671 4.10452 79.7092 4.0593 79.7324 4.00586C79.7473 3.97003 79.7552 3.93155 79.7555 3.89261C79.7558 3.85367 79.7486 3.81503 79.7343 3.77893C79.72 3.74283 79.6989 3.70996 79.6722 3.68222C79.6455 3.65448 79.6136 3.63243 79.5786 3.61728C79.0355 3.37672 78.4743 3.15466 77.9132 2.95111C77.877 2.93802 77.8386 2.93243 77.8002 2.93467C77.7618 2.93692 77.7243 2.94693 77.6897 2.96415C77.6552 2.98137 77.6244 3.00544 77.599 3.03497C77.5737 3.06449 77.5543 3.09889 77.5421 3.13614C77.5293 3.17318 77.5239 3.21246 77.526 3.25168C77.5282 3.2909 77.538 3.32926 77.5549 3.36457C77.5717 3.39987 77.5953 3.43141 77.6242 3.45732C77.653 3.48323 77.6867 3.503 77.7232 3.51549C78.2662 3.70979 78.8183 3.93186 79.3432 4.16317C79.3831 4.19324 79.4299 4.21235 79.479 4.21868L79.4609 4.18166ZM56.9244 3.44148H56.9877L58.7074 3.07136C58.7457 3.06472 58.7824 3.05027 58.8151 3.02884C58.8479 3.00741 58.8761 2.97946 58.898 2.94664C58.92 2.91383 58.9353 2.87683 58.9429 2.83785C58.9506 2.79887 58.9506 2.75874 58.9427 2.7198C58.9254 2.6435 58.88 2.57694 58.8159 2.53389C58.7519 2.49084 58.6742 2.47458 58.5988 2.48849C58.0195 2.59952 57.4403 2.72904 56.8611 2.85858C56.7864 2.87632 56.7213 2.92271 56.6792 2.98815C56.6371 3.05359 56.6212 3.13308 56.6348 3.21017C56.6457 3.28535 56.6829 3.35393 56.7395 3.40325C56.796 3.45257 56.8681 3.4793 56.9425 3.47847L56.9244 3.44148ZM76.1302 2.99736C76.196 2.99948 76.2605 2.97865 76.3131 2.93829C76.3657 2.89792 76.4034 2.84045 76.4198 2.77531C76.4294 2.73764 76.4315 2.69841 76.4262 2.65988C76.4209 2.62135 76.4082 2.58429 76.3889 2.55078C76.3696 2.51726 76.344 2.48796 76.3135 2.46457C76.2831 2.44118 76.2485 2.42416 76.2116 2.41445C75.6414 2.25716 75.0622 2.10913 74.4739 1.98885C74.3972 1.97523 74.3184 1.99274 74.2541 2.03767C74.1899 2.0826 74.1453 2.15142 74.13 2.22942C74.1163 2.30651 74.1323 2.38597 74.1744 2.45141C74.2165 2.51685 74.2816 2.56324 74.3562 2.58099C74.9355 2.69202 75.5057 2.8308 76.0578 2.9881L76.1302 2.99736ZM60.3818 2.73829H60.4361C61.0395 2.63343 61.6188 2.54092 62.1739 2.46073C62.25 2.4471 62.318 2.40378 62.3636 2.33994C62.4091 2.27609 62.4287 2.19667 62.4182 2.11837C62.4138 2.07967 62.4018 2.04229 62.3828 2.0085C62.3639 1.97471 62.3383 1.94522 62.3078 1.92185C62.2773 1.89847 62.2425 1.88171 62.2055 1.87255C62.1684 1.86338 62.13 1.86202 62.0924 1.86856C61.5041 1.95184 60.9248 2.04435 60.3365 2.14612C60.2609 2.15967 60.1937 2.20335 60.1496 2.26754C60.1055 2.33173 60.0881 2.4112 60.1012 2.48849C60.1011 2.52776 60.109 2.56661 60.1242 2.60267C60.1394 2.63874 60.1617 2.67122 60.1897 2.69811C60.2177 2.725 60.2508 2.74574 60.287 2.75902C60.3231 2.77229 60.3616 2.77784 60.3999 2.77531L60.3818 2.73829ZM72.6818 2.28493C72.7522 2.28358 72.8199 2.25683 72.8729 2.20943C72.9259 2.16203 72.9608 2.09702 72.9715 2.02587C72.9765 1.98694 72.9739 1.94736 72.9639 1.90945C72.9539 1.87154 72.9366 1.83606 72.913 1.80506C72.8894 1.77406 72.86 1.74816 72.8265 1.72888C72.7931 1.7096 72.7562 1.69733 72.718 1.69277C72.1388 1.6095 71.5414 1.54474 70.9079 1.49847C70.8703 1.49467 70.8324 1.49864 70.7963 1.51019C70.7603 1.52174 70.7269 1.54062 70.6982 1.56568C70.6694 1.59073 70.6459 1.62144 70.6291 1.656C70.6122 1.69056 70.6024 1.72826 70.6002 1.7668C70.5964 1.80571 70.6002 1.84498 70.6114 1.88237C70.6226 1.91976 70.641 1.95451 70.6654 1.98461C70.6898 2.01472 70.7198 2.03961 70.7536 2.0578C70.7875 2.076 70.8245 2.08713 70.8626 2.09061C71.4509 2.13687 72.0392 2.20166 72.6004 2.28493H72.6818ZM63.8754 2.23865C64.4547 2.17389 65.043 2.12764 65.6222 2.08138C65.6603 2.07902 65.6975 2.069 65.7318 2.0519C65.766 2.0348 65.7966 2.01096 65.8219 1.98173C65.8471 1.95251 65.8664 1.91847 65.8788 1.88158C65.8911 1.8447 65.8962 1.8057 65.8937 1.7668C65.8915 1.72705 65.8814 1.68815 65.8641 1.65247C65.8468 1.6168 65.8227 1.58507 65.7931 1.55915C65.7635 1.53324 65.7291 1.51368 65.692 1.50167C65.6549 1.48965 65.6157 1.48541 65.5769 1.48921C64.9886 1.48921 64.4003 1.58175 63.7668 1.64652C63.7287 1.64999 63.6916 1.66113 63.6578 1.67933C63.6239 1.69752 63.594 1.72241 63.5696 1.75251C63.5451 1.78262 63.5268 1.81737 63.5156 1.85476C63.5044 1.89214 63.5006 1.93141 63.5043 1.97033C63.4997 2.02022 63.5076 2.07051 63.5272 2.11645C63.5468 2.16239 63.5775 2.2025 63.6163 2.23301C63.6552 2.26352 63.7011 2.28343 63.7495 2.29089C63.798 2.29835 63.8475 2.29312 63.8935 2.27567L63.8754 2.23865ZM69.1611 1.99811C69.2372 1.99825 69.3106 1.96861 69.3661 1.91529C69.4216 1.86198 69.4551 1.78899 69.4598 1.71126C69.461 1.67161 69.4544 1.63212 69.4404 1.59513C69.4264 1.55813 69.4052 1.52439 69.3782 1.4959C69.3512 1.46742 69.3188 1.44478 69.2831 1.42932C69.2474 1.41387 69.2089 1.40593 69.1701 1.40594C68.5818 1.40594 67.9845 1.40594 67.36 1.40594C67.3212 1.40593 67.2827 1.41387 67.247 1.42932C67.2113 1.44478 67.1789 1.46742 67.1519 1.4959C67.1249 1.52439 67.1037 1.55813 67.0897 1.59513C67.0757 1.63212 67.0691 1.67161 67.0703 1.71126C67.0727 1.78817 67.1042 1.86113 67.1583 1.91467C67.2123 1.96821 67.2847 1.99815 67.36 1.99811H69.1249H69.1611Z" fill="#999999"/>
<path d="M23.9431 70.4384L21.3908 71.5672L11.1905 64.2948L8.47527 65.8307C6.29402 67.163 4.17614 67.2556 3.16245 66.6634L2.95424 66.7652C1.3794 67.4684 0.447173 66.8392 0.130395 66.0805C-0.186383 65.3218 -0.00534287 64.23 1.5695 63.5083L1.77765 63.4158C1.96772 62.4906 2.79138 60.9362 6.00442 60.0202L8.96399 59.0487L10.7742 46.4747L13.3265 45.3367L15.3086 56.9854L22.6036 54.4318L23.7078 51.4432L25.7352 50.6753L25.88 53.451L26.604 53.3862L27.2648 54.9314L26.7217 55.4773L28.6404 57.5128L26.7036 58.5028L23.8255 57.2815L17.0102 60.9825L23.9431 70.4384ZM23.753 56.6061L26.6493 57.8366L27.5544 57.3555L25.7985 55.505L26.4592 54.8204L26.1515 54.0894L25.2464 54.1727L25.1107 51.582L24.1241 51.9521L23.0199 54.9499L14.7656 57.8274L12.8015 46.2526L11.2719 46.9281L9.50707 59.5483L6.16732 60.6401C3.05385 61.5191 2.43836 62.944 2.34785 63.7119V63.9062L2.16683 63.971C2.05184 64.0044 1.93982 64.0478 1.83195 64.1005C0.863515 64.5261 0.429085 65.2015 0.70966 65.8492C0.990235 66.4969 1.75954 66.6449 2.72797 66.2101C2.83695 66.1651 2.94282 66.1125 3.04478 66.0528L3.21675 65.951L3.37966 66.0713C4.04037 66.5709 5.9682 66.6634 8.1947 65.3126L11.2358 63.5731L21.4632 70.8733L22.9927 70.1978L16.0599 60.8159L23.753 56.6061Z" fill="#999999"/>
</svg>
