<svg width="18" height="18" viewBox="0 0 18 18" fill="none" xmlns="http://www.w3.org/2000/svg">
<path d="M14.5667 0H2.5C1.12167 0 0 1.12167 0 2.5V14.5667C0 15.9453 1.12167 17.0667 2.5 17.0667H14.5667C15.9453 17.0667 17.0667 15.9453 17.0667 14.5667V2.5C17.0667 1.12167 15.9453 0 14.5667 0ZM16.0667 14.5667C16.0667 15.3937 15.3937 16.0667 14.5667 16.0667H2.5C1.673 16.0667 1 15.3937 1 14.5667V2.5C1 1.673 1.673 1 2.5 1H14.5667C15.3937 1 16.0667 1.673 16.0667 2.5V14.5667Z" fill="white"/>
<path d="M14.0334 2.0332C13.4821 2.0332 13.0334 2.48187 13.0334 3.0332C13.0334 3.58454 13.4821 4.0332 14.0334 4.0332C14.5848 4.0332 15.0334 3.58454 15.0334 3.0332C15.0334 2.48187 14.5848 2.0332 14.0334 2.0332Z" fill="white"/>
<path d="M8.5 4.06641C6.01867 4.06641 4 6.08507 4 8.56641C4 11.0477 6.01867 13.0664 8.5 13.0664C10.9813 13.0664 13 11.0477 13 8.56641C13 6.08507 10.9813 4.06641 8.5 4.06641ZM8.5 12.0664C6.57 12.0664 5 10.4964 5 8.56641C5 6.63641 6.57 5.06641 8.5 5.06641C10.43 5.06641 12 6.63641 12 8.56641C12 10.4964 10.43 12.0664 8.5 12.0664Z" fill="white"/>
</svg>
