<svg width="42" height="48" viewBox="0 0 42 48" fill="none" xmlns="http://www.w3.org/2000/svg">
<path d="M18.4403 0.103802C12.377 0.713886 6.79244 4.10219 3.32905 9.2832C1.6959 11.7329 0.466352 15.1212 0.0909168 18.1998C-0.0498716 19.373 -0.0217139 21.5881 0.137846 22.5361C1.15152 28.3084 6.86753 36.4554 16.0469 45.203C17.9335 46.9957 18.3559 47.3524 18.9472 47.6527C19.6136 47.9812 19.698 48 20.5522 48C21.4063 48 21.4907 47.9812 22.1571 47.6527C22.7485 47.3524 23.1708 46.9957 25.0574 45.203C31.0174 39.5245 35.8136 33.7334 38.4604 28.9936C39.7651 26.6471 40.5441 24.6667 40.9289 22.6956C41.1354 21.635 41.173 19.5232 41.0134 18.1998C40.6661 15.3183 39.5961 12.2304 38.1319 9.84636C36.9962 8.00672 35.1284 5.8949 33.4484 4.53394C29.2623 1.17379 23.8184 -0.440578 18.4403 0.103802ZM23.5556 1.6337C28.5208 2.45966 32.9509 5.14402 35.9169 9.13303C37.8973 11.7892 39.0799 14.6707 39.568 18.0121C39.7932 19.6171 39.7182 21.9635 39.3803 23.2212C37.9161 28.7777 32.6787 35.9391 23.9405 44.3207C22.7766 45.4283 21.838 46.2542 21.594 46.3762C21.0308 46.6484 20.402 46.6954 19.8201 46.4983C19.2569 46.3199 17.9992 45.1936 15.2116 42.406C9.2797 36.4835 5.39395 31.4902 3.18826 26.9756C1.81792 24.188 1.40494 22.6299 1.40494 20.3116C1.40494 11.7517 7.45884 4.10219 15.9155 1.97159C16.6289 1.79326 18.1306 1.53046 18.9096 1.45537C19.698 1.38028 22.7015 1.49291 23.5556 1.6337Z" fill="#FFB60A"/>
<path d="M18.7409 5.08966C15.24 5.49326 12.2271 6.89175 9.69294 9.30393C7.41217 11.4815 5.90105 14.194 5.20649 17.4039C5.02816 18.2299 5 18.6429 5 20.4262C5 22.2095 5.02816 22.6225 5.20649 23.4391C5.6664 25.5415 6.57683 27.6533 7.73129 29.2959C8.64173 30.5817 10.3875 32.29 11.6452 33.1347C15.1086 35.4436 18.8348 36.2696 22.9177 35.622C23.4339 35.5375 23.9877 35.4155 24.1566 35.3498C24.6447 35.1433 24.7104 34.4863 24.2692 34.1578C24.0346 33.9794 24.0158 33.9794 22.9552 34.1859C21.5567 34.4675 19.2384 34.4863 17.8962 34.2328C15.0147 33.6791 12.4993 32.3557 10.4344 30.2814C9.11102 28.9674 7.61866 26.7805 7.90963 26.5927C7.96594 26.5552 9.07348 25.6448 10.3593 24.5748C11.8892 23.3077 12.734 22.5474 12.7715 22.3972C12.9029 21.8904 12.321 21.3648 11.8611 21.5807C11.7485 21.6276 10.6597 22.5005 9.44891 23.5048L7.24323 25.335L7.11183 25.0441C6.90534 24.556 6.55806 23.0824 6.43604 22.1908C6.2671 20.9237 6.37973 18.596 6.6613 17.3758C7.85331 12.3543 11.4669 8.47797 16.3288 7.01377C17.7648 6.58202 18.6752 6.45062 20.3365 6.45062C22.1574 6.45062 23.1523 6.61018 24.7573 7.14517C26.6532 7.77403 28.3427 8.75955 29.7412 10.0454C30.5859 10.8338 30.9051 10.9465 31.2617 10.5898C31.7029 10.1487 31.609 9.88585 30.7267 9.05051C27.6388 6.1315 23.0115 4.6016 18.7409 5.08966Z" fill="#FFB60A"/>
<path d="M23.931 11.6953C23.3209 11.9206 22.5044 12.7559 22.2885 13.4035C21.913 14.5392 22.2979 15.8157 23.2271 16.529C24.6537 17.6178 26.6341 17.1485 27.4789 15.5248C27.8355 14.8302 27.8355 13.8541 27.4695 13.1126C27.1504 12.465 26.5215 11.883 25.9302 11.6859C25.3858 11.4982 24.4848 11.5076 23.931 11.6953ZM25.6205 13.0844C26.4746 13.5256 26.5966 14.7176 25.8551 15.3652C25.245 15.9096 24.2783 15.7969 23.7996 15.1305C23.5274 14.7551 23.4993 14.0042 23.7339 13.6194C24.1281 13 24.9822 12.7559 25.6205 13.0844Z" fill="#FFB60A"/>
<path d="M32.3877 12.155C32.1436 12.4647 32.1436 12.6242 32.3783 13.0372C32.8664 13.8913 33.5046 15.2148 33.7392 15.853C34.2649 17.3266 34.4526 18.3872 34.5089 20.2831C34.537 21.2593 34.537 22.0477 34.4995 22.0477C34.462 22.0477 33.5797 21.3625 32.5378 20.5272C31.496 19.6824 30.4917 18.9222 30.3134 18.8377C29.9004 18.6218 29.3373 18.6312 28.8586 18.8471C28.6521 18.9503 27.6853 19.6824 26.7186 20.499C25.4984 21.5033 24.9165 21.935 24.8414 21.8787C24.7757 21.8318 23.4523 20.7806 21.9036 19.5323C20.3456 18.2933 18.9752 17.2515 18.8626 17.2139C18.4309 17.0732 17.7457 17.1389 17.3984 17.3453C16.7226 17.7489 14.0007 20.0766 13.9444 20.3113C13.813 20.8181 14.3949 21.3437 14.8548 21.1372C14.9675 21.0809 15.7183 20.4896 16.5161 19.8232C17.3139 19.1568 18.0367 18.5843 18.1211 18.5561C18.2056 18.5186 18.3745 18.5655 18.5059 18.65C19.0503 19.016 31.6274 29.1153 31.6274 29.1903C31.6274 29.2279 31.1769 29.7253 30.6231 30.2885C29.5062 31.4242 28.6145 32.1187 27.4038 32.8039C26.9626 33.0479 26.5309 33.3107 26.4464 33.3858C26.2118 33.5829 26.2305 34.1085 26.4652 34.3432C26.728 34.606 27.0377 34.5778 27.7135 34.2399C31.0737 32.5505 33.9457 29.1622 35.1847 25.4454C35.776 23.6714 35.8886 22.8736 35.8886 20.5929C35.8886 18.3215 35.776 17.5237 35.1847 15.7404C34.8374 14.6704 33.8988 12.7369 33.5046 12.2582C33.1292 11.8171 32.688 11.7701 32.3877 12.155ZM31.9653 21.86C33.8237 23.3429 34.1992 23.6808 34.1804 23.8592C34.0677 24.6288 32.9978 27.2005 32.5472 27.8012C32.4346 27.9514 32.1436 27.7355 29.2528 25.4172C27.507 24.0187 26.0991 22.8549 26.1273 22.8267C26.5403 22.4043 29.4593 20.0766 29.5719 20.0766C29.6564 20.0766 30.7264 20.8838 31.9653 21.86Z" fill="#FFB60A"/>
</svg>
